<svg xmlns="http://www.w3.org/2000/svg" width="45" height="45" viewBox="0 0 45 45" fill="none"><path d="M22.5 44C10.6259 44 1 34.3741 1 22.5C1 10.6259 10.6259 0.999998 22.5 0.999999C34.3741 1 44 10.6259 44 22.5C44 34.3741 34.3741 44 22.5 44Z" fill="white" stroke="#00828C" stroke-width="2"></path><path d="M18.72 29.2C17.6133 29.2 16.6133 28.92 15.72 28.36C14.84 27.8 14.1467 26.9867 13.64 25.92C13.1333 24.84 12.88 23.5333 12.88 22C12.88 20.4667 13.1333 19.1667 13.64 18.1C14.1467 17.02 14.84 16.2 15.72 15.64C16.6133 15.08 17.6133 14.8 18.72 14.8C19.84 14.8 20.84 15.08 21.72 15.64C22.6 16.2 23.2933 17.02 23.8 18.1C24.32 19.1667 24.58 20.4667 24.58 22C24.58 23.5333 24.32 24.84 23.8 25.92C23.2933 26.9867 22.6 27.8 21.72 28.36C20.84 28.92 19.84 29.2 18.72 29.2ZM18.72 26.94C19.3733 26.94 19.94 26.7667 20.42 26.42C20.9 26.06 21.2733 25.5133 21.54 24.78C21.82 24.0467 21.96 23.12 21.96 22C21.96 20.8667 21.82 19.94 21.54 19.22C21.2733 18.4867 20.9 17.9467 20.42 17.6C19.94 17.24 19.3733 17.06 18.72 17.06C18.0933 17.06 17.5333 17.24 17.04 17.6C16.56 17.9467 16.18 18.4867 15.9 19.22C15.6333 19.94 15.5 20.8667 15.5 22C15.5 23.12 15.6333 24.0467 15.9 24.78C16.18 25.5133 16.56 26.06 17.04 26.42C17.5333 26.7667 18.0933 26.94 18.72 26.94ZM28.5575 29V16L29.6975 17.18H25.5975V15H31.1575V29H28.5575Z" fill="#00828C"></path></svg>