<svg xmlns="http://www.w3.org/2000/svg" xmlns:xlink="http://www.w3.org/1999/xlink" id="&#x5716;&#x5C64;_1" x="0px" y="0px" viewBox="0 0 60 60" style="enable-background:new 0 0 60 60;" xml:space="preserve"><style type="text/css">	.st0{fill:#008796;}	.st1{fill:#FFFFFF;}</style><g>	<path class="st0" d="M0,5c0-2.8,2.2-5,5-5h50c2.8,0,5,2.2,5,5v50c0,2.8-2.2,5-5,5H5c-2.8,0-5-2.2-5-5V5z"></path></g><path class="st1" d="M48.3,25.8c-1.7-8-8.5-13.9-16.6-14.5C24,10.7,18.1,13.7,14,20.1c-2.3,3.7-3.2,8-2.5,12.7 c0.5,3.7,2,6.9,4.5,9.6c0.2,0.2,0.7,0.8,1.2,0.3c0.2-0.1,0.3-0.3,0.3-0.5c0-0.3-0.2-0.6-0.4-0.8c-3.6-4.1-4.9-8.9-4.1-14.2 c1.3-8.4,8.5-14.6,17.1-14.7c0.4,0.1,0.8,0.1,1.1,0.1c0.8,0.1,1.6,0.2,2.4,0.4C41.4,14.7,48.7,22.8,47,33 c-1.4,7.9-8.1,13.8-16.3,14.3c-4,0.2-7.8-0.9-11.2-3.5c0,0-0.1-0.1-0.1-0.1c-0.1-0.1-0.2-0.2-0.4-0.2c-0.4,0-0.7,0.1-0.8,0.2 c-0.2,0.3,0,0.7,0,0.9c0.1,0.2,0.2,0.3,0.4,0.4c0,0,0.1,0.1,0.1,0.1c3.4,2.5,7,3.8,11,3.8c1.4,0,2.9-0.2,4.4-0.5 C44.3,46.1,50.5,36.2,48.3,25.8z"></path><path class="st1" d="M38,41.2c-3,2.1-6.9,2.9-10.5,2.2c-0.9-0.2-1.8-0.5-2.6-0.9c-0.5-0.2-1-0.4-1.5-0.6c-0.2-0.1-0.5,0-0.7,0 c-0.1,0-0.2,0-0.3,0.1l-0.2,0l0.1,0.2c0,0.1,0.1,0.2,0.1,0.2c0.1,0.2,0.1,0.4,0.2,0.6c0.1,0.2,0.2,0.2,0.4,0.3c0.1,0,0.1,0,0.1,0.1 c2.2,1.1,4.4,1.7,6.8,1.7c1.1,0,2.2-0.1,3.3-0.4c7-1.4,12.2-7.6,12.2-14.8c0-6.9-4.4-12.9-11-14.7c-0.9-0.2-1.9-0.4-2.8-0.5 c-0.4,0-0.7-0.1-1.1-0.1c-0.3,0-0.6,0-0.7,0.2c-0.1,0.1-0.2,0.3-0.2,0.5c0.1,0.4,0.6,0.7,0.7,0.7c0.2,0.1,0.4,0.1,0.6,0.1 c0.1,0,0.2,0,0.2,0c3.4,0.3,6.1,1.3,8.2,3.3c3.7,3.4,5.2,7.7,4.3,12.9C42.7,36.2,40.9,39.2,38,41.2z"></path><path class="st1" d="M21.9,31.8c1.5,1.6,2.9,2.9,4.1,4.2c0.4,0.4,1,0.7,1.5,0.7c0.5,0,1.1-0.2,1.5-0.7c2.3-2.3,7.6-7.6,8.2-8.2 c0.1-0.1,0.1-0.1,0.1-0.1c0.2-0.2,0.4-0.4,0.6-0.6c0.1-0.1,0.1-0.1,0.2-0.2c0.8-0.9,0.8-2,0-2.9c-0.8-0.9-2-0.8-2.9,0 c-0.4,0.4-0.8,0.8-1.3,1.3c-0.3,0.3-0.6,0.6-0.9,0.9c-1.3,1.3-2.6,2.6-3.9,3.9l-1.7,1.7c-0.2-0.2-0.5-0.5-0.7-0.7 c-0.7-0.7-1.3-1.4-2-2c-0.8-0.8-2.1-0.8-2.9,0.1C21.1,29.8,21.1,31,21.9,31.8z M36.9,26c-0.1,0.1-0.1,0.1-0.2,0.2 c-0.2,0.2-0.4,0.3-0.5,0.5l-0.4,0.4c-1.8,1.8-5.9,5.9-7.7,7.7c-0.5,0.5-0.7,0.5-1.2,0c-0.7-0.7-1.4-1.4-2.2-2.2 c-0.6-0.6-1.1-1.1-1.7-1.7c-0.2-0.2-0.3-0.4-0.3-0.5c0-0.1,0.1-0.2,0.2-0.4c0.1-0.1,0.2-0.2,0.4-0.2s0.3,0.1,0.5,0.3 c0.5,0.5,1.1,1.1,1.6,1.7c0.3,0.3,0.6,0.6,0.9,0.9c0.5,0.5,0.8,0.8,1.1,0.8c0.3,0,0.6-0.3,1.1-0.8l1.9-1.9c1.9-1.9,3.7-3.7,5.6-5.6 c0.2-0.2,0.4-0.4,0.6-0.4c0.1,0,0.2,0,0.4,0.2C37.4,25.3,37.3,25.6,36.9,26z"></path><path class="st1" d="M20,20.8c0.5,0,0.9-0.4,0.9-0.9c0-0.5-0.4-0.9-0.9-0.9c-0.5,0-0.9,0.4-0.9,0.9C19.1,20.4,19.5,20.8,20,20.8z"></path><path class="st1" d="M17.6,23.6c0.5,0,0.9-0.4,0.9-0.9c0-0.5-0.4-0.9-0.9-0.9c-0.5,0-0.9,0.4-0.9,0.9C16.7,23.2,17.1,23.6,17.6,23.6 z"></path><path class="st1" d="M16.1,27.2c0.5,0,0.9-0.4,0.9-0.9c0-0.5-0.4-0.9-0.9-0.9c-0.5,0-0.9,0.4-0.9,0.9C15.3,26.8,15.7,27.2,16.1,27.2 z"></path><path class="st1" d="M15.8,30.8c0.5,0,0.9-0.4,0.9-0.9c0-0.5-0.4-0.9-0.9-0.9c-0.5,0-0.9,0.4-0.9,0.9C14.9,30.4,15.3,30.8,15.8,30.8 z"></path><path class="st1" d="M16.1,34.5c0.5,0,0.9-0.4,0.9-0.9s-0.4-0.9-0.9-0.9c-0.5,0-0.9,0.4-0.9,0.9S15.6,34.5,16.1,34.5z"></path><path class="st1" d="M17.5,38.1c0.5,0,0.9-0.4,0.9-0.9s-0.4-0.9-0.9-0.9c-0.5,0-0.9,0.4-0.9,0.9S17,38.1,17.5,38.1z"></path><path class="st1" d="M19.7,41.1c0.5,0,0.9-0.4,0.9-0.9c0-0.5-0.4-0.9-0.9-0.9c-0.5,0-0.9,0.4-0.9,0.9C18.9,40.7,19.3,41.1,19.7,41.1 z"></path><path class="st1" d="M22.9,18.4c0.5,0,0.9-0.4,0.9-0.9c0-0.5-0.4-0.9-0.9-0.9c-0.5,0-0.9,0.4-0.9,0.9C22,18,22.4,18.4,22.9,18.4z"></path><path class="st1" d="M26.3,16.8c0.5,0,0.9-0.4,0.9-0.9s-0.4-0.9-0.9-0.9c-0.5,0-0.9,0.4-0.9,0.9S25.9,16.8,26.3,16.8z"></path></svg>