<svg xmlns="http://www.w3.org/2000/svg" width="39" height="44" viewBox="0 0 39 44" fill="none"><path d="M16.3474 43.9032C16.6791 44.054 17.0712 44.0841 17.6291 43.3002C18.0514 42.7274 18.4736 42.1093 18.8506 41.5816L18.9712 41.4158C19.107 41.2198 19.2427 41.0238 19.3935 40.8279L22.4547 36.5012C26.4206 30.9083 30.3866 25.3153 34.3526 19.7223C34.7447 19.1645 34.8201 18.8178 34.6089 18.4409C34.4129 18.064 34.0661 18.0037 33.4327 18.0037C30.8842 18.0037 28.2905 18.0037 25.7722 18.0037H24.2039C23.6158 18.0037 23.2539 18.0037 23.0579 17.657C22.8467 17.3103 23.0277 17.0088 23.2991 16.4962L24.4 14.5063C26.5865 10.5565 28.8334 6.47108 31.035 2.43087C31.3065 1.93339 31.3819 1.4962 31.216 1.22485C31.0652 0.953488 30.658 0.81781 30.085 0.81781C28.3659 0.81781 26.6318 0.81781 24.9127 0.802734H20.434C18.7752 0.802734 17.1164 0.802734 15.4577 0.802734C14.4775 0.802734 14.387 0.863036 14.0402 1.79771C11.2957 9.5163 8.53606 17.2349 5.77646 24.9535C5.56535 25.5264 5.55027 25.9937 5.71614 26.2349C5.88202 26.4761 6.30425 26.6118 6.90744 26.6118C10.8734 26.6269 14.206 26.6269 17.6141 26.6269H17.6291C18.0212 26.6269 18.4133 26.6721 18.6696 26.9887C18.8657 27.2299 18.9109 27.5465 18.8204 27.9836C18.4585 29.7173 18.1117 31.466 17.7799 33.1696L17.1466 36.3505C16.7394 38.4007 16.3172 40.5264 15.9101 42.6068C15.7291 43.6168 16.1815 43.8279 16.3474 43.9032ZM18.926 36.5766C18.9562 36.3806 19.0014 36.1696 19.0316 35.9736V35.9434C19.107 35.4912 19.1824 35.0238 19.2728 34.5565C19.5895 32.9736 19.9062 31.4057 20.2229 29.8228C20.4491 28.7223 20.6602 27.6218 20.8864 26.5213C21.0221 25.8731 20.9919 25.4208 20.811 25.1947C20.63 24.9836 20.2078 24.863 19.5594 24.863H17.5537C14.8092 24.863 11.9742 24.848 9.16941 24.863C8.77733 24.863 8.38526 24.848 8.14398 24.5163C7.91779 24.1997 8.00827 23.8078 8.1289 23.461C10.3456 17.3253 12.6679 10.8279 15.2315 3.60675C15.5029 2.85299 15.9704 2.50625 16.7696 2.50625H16.7847C20.0871 2.5364 23.5404 2.5364 27.3254 2.52133H27.3405C27.7175 2.52133 28.1096 2.56655 28.3207 2.91329C28.5318 3.26002 28.3659 3.65198 28.185 3.98364C26.3 7.39067 24.4 10.8429 22.5753 14.1746L20.7507 17.4912C20.7054 17.5816 20.6451 17.6872 20.5848 17.7776C20.1776 18.3806 20.057 18.8932 20.2379 19.2248C20.434 19.5867 21.007 19.7977 21.7308 19.7676C23.8872 19.6922 26.0135 19.7073 28.2754 19.7374C29.1199 19.7374 30.1604 19.7525 31.1858 19.7525H32.166L18.2776 39.4259L18.8054 37.0138L18.926 36.5766Z" fill="#0C8890"></path><path d="M1.04132 25.6318C1.47864 25.7524 1.78023 25.6318 2.00643 25.2549C2.11199 25.074 2.20247 24.8479 2.27786 24.6368C4.01204 19.7826 5.74621 14.9434 7.48038 10.0891L7.49546 10.0589C7.57086 9.84788 7.64625 9.63683 7.66133 9.45592C7.70657 9.03381 7.55578 8.76246 7.1637 8.56648C6.80179 8.38557 6.51527 8.46095 6.1986 8.79261C6.01764 8.97351 5.94224 9.22979 5.83668 9.51622L5.77637 9.63683C4.07235 14.4308 2.35326 19.2398 0.649251 24.0338C0.573852 24.2298 0.528613 24.4258 0.483374 24.5916L0.347656 24.5765L0.468294 24.6067L0.438135 24.6971C0.453214 25.4057 0.754809 25.5414 1.04132 25.6318Z" fill="#0C8890"></path><path d="M23.9472 43.3457C24.5052 42.5468 25.0631 41.7478 25.6211 40.9488L25.7417 40.7829C27.0386 38.9287 28.3807 36.999 29.7077 35.1146C30.1148 34.5116 30.0998 33.999 29.6624 33.6824C29.4966 33.5618 29.3458 33.5166 29.195 33.5166C28.8331 33.5166 28.5164 33.8181 28.3053 34.1196C27.31 35.5367 26.2997 36.9839 25.41 38.2503L24.7314 39.2302C23.9472 40.3608 23.148 41.4915 22.3638 42.6221C22.1376 42.9538 22.1075 43.2402 22.2884 43.5568C22.4091 43.7679 22.575 43.994 23.2083 43.994H23.2234C23.4194 43.9789 23.6456 43.7829 23.9472 43.3457Z" fill="#0C8890"></path><path d="M36.5841 0.847961C36.4785 0.81781 36.3881 0.802734 36.2976 0.802734C35.9809 0.802734 35.7396 0.983639 35.5285 1.36052C35.0761 2.17459 34.6388 2.98866 34.1864 3.80273L34.0658 4.02887C33.0705 5.83791 32.0451 7.70726 31.0348 9.56153C30.8236 9.95349 30.7633 10.3002 30.8387 10.5716C30.899 10.7676 31.0348 10.9183 31.261 11.0238C31.7435 11.265 32.1808 11.054 32.5427 10.3756C33.5531 8.56655 34.5785 6.66706 35.4984 5.00877C36.0111 4.08917 36.5087 3.16957 37.0214 2.2349C37.127 2.03892 37.2175 1.85801 37.2175 1.58665C37.1873 1.20977 36.9762 0.953488 36.5841 0.847961Z" fill="#0C8890"></path><path d="M12.9844 30.9086C12.4114 33.6673 11.8082 36.6673 11.1447 40.0744C11.0391 40.6322 11.3105 41.1146 11.8082 41.2201C12.0042 41.2653 12.2003 41.2352 12.3812 41.1146C12.6074 40.9789 12.7582 40.7226 12.8336 40.406C13.09 39.1849 13.3463 37.9337 13.5876 36.7276L13.6027 36.6824C13.7082 36.1397 13.8138 35.597 13.9344 35.0694C14.1154 34.1498 14.3114 33.2452 14.4773 32.401L14.7035 31.2854C14.7186 30.5166 14.4773 30.0945 13.9797 30.0342C13.9495 30.0342 13.9193 30.0342 13.8892 30.0342C13.4519 30.0342 13.09 30.3809 12.9844 30.9086Z" fill="#0C8890"></path><path d="M33.9 28.0139C34.3524 28.1797 34.6992 28.0893 34.9707 27.6973C35.1969 27.3958 35.408 27.0792 35.6342 26.7777L35.6794 26.7174C36.4334 25.6772 37.2025 24.6069 37.9565 23.5215C38.1374 23.2652 38.2128 22.9938 38.1676 22.7526C38.1223 22.5416 38.0017 22.3757 37.8057 22.24C37.6398 22.1345 37.489 22.0742 37.3231 22.0742C36.9763 22.0742 36.7048 22.3456 36.539 22.5717C35.785 23.5968 35.031 24.637 34.3072 25.6622L34.2318 25.7526C34.0508 26.0089 33.8548 26.2802 33.6738 26.5365C33.4929 26.7777 33.4175 26.9586 33.4325 27.0943V27.1094V27.1395C33.4175 27.7576 33.6738 27.9235 33.9 28.0139Z" fill="#0C8890"></path></svg>