<svg xmlns="http://www.w3.org/2000/svg" width="64" height="54" viewBox="0 0 64 54" fill="none"><path d="M63.0398 34.5431V34.0668C63.0398 30.4729 63.0398 20.557 63.0398 19.9075C63.0398 18.0023 63.0398 16.0104 62.9965 14.0619C62.9965 13.5856 62.5635 12.8928 62.1738 12.6763C54.8993 8.60602 47.235 4.40585 39.3976 0.162378C39.0079 -0.0541259 38.2718 -0.0541259 37.8388 0.162378C30.0013 4.40585 22.3371 8.60602 15.0626 12.6763C14.6729 12.8928 14.3265 13.5856 14.2399 14.1052C14.1533 14.6248 14.1533 15.1877 14.1966 15.7939C14.1966 16.0537 14.1966 16.3568 14.1966 16.6166V16.7899H8.52421C6.44577 16.7899 4.36734 16.7899 2.2456 16.7899C1.46619 16.7899 1.03318 17.1363 0.946581 17.9157C0.903281 18.2188 0.989882 18.4786 1.16308 18.6518C1.37959 18.9116 1.76929 19.0848 2.2456 19.0848C2.41881 19.0848 2.59199 19.0848 2.76519 19.0848H2.98169H14.0234V24.3242H12.2481C11.8584 24.3242 11.815 24.3242 10.3428 24.3242C8.95719 24.3242 8.784 24.8871 8.784 25.45C8.784 25.7964 8.87059 26.0562 9.04379 26.2294C9.3036 26.4892 9.69331 26.6191 10.2995 26.6191H10.8624H13.9801V34.0235H10.2562C9.21702 34.0235 8.7407 34.0235 6.61896 34.0235C6.57566 34.0235 6.53236 34.0235 6.53236 34.0235H6.44575H6.40246C5.75295 34.0235 5.06013 33.9802 4.36732 34.0235C3.71781 34.0668 3.32812 34.4565 3.32812 35.1061C3.32812 35.7989 3.71783 36.2319 4.41064 36.2752C4.62714 36.2752 4.88692 36.2752 5.14673 36.2752C5.27663 36.2752 5.36325 36.2752 5.49316 36.2752H6.35917C6.48907 36.2752 6.57565 36.2752 6.66225 36.2752C8.04788 36.2752 8.6974 36.2752 9.21701 36.2752C9.47681 36.2752 9.73663 36.2752 10.0397 36.2752H14.0667V36.4484C14.0667 36.7082 14.0667 36.968 14.0667 37.2278C14.0667 37.7907 14.0667 38.3103 14.0667 38.7866C14.0234 39.566 14.3265 40.0423 15.0626 40.4753C17.7905 41.9909 20.5618 43.4631 23.2897 44.9786C28.0095 47.5767 32.8592 50.218 37.6656 52.8593C38.0986 53.0759 38.878 53.1191 39.311 52.9026C46.9752 48.7458 54.6394 44.5456 62.0872 40.3887C62.4769 40.1722 62.8666 39.4794 62.9099 39.0031C63.0831 37.5309 63.0831 36.0154 63.0398 34.5431ZM33.8118 5.05536C35.3273 4.23265 36.713 3.45323 38.1852 2.67382C38.4883 2.54392 38.9213 2.58722 39.2244 2.71712C45.07 5.92137 51.0022 9.16893 56.7179 12.3299L58.7097 13.4124C58.753 13.4557 58.8396 13.499 58.9262 13.5423L59.3592 13.8454L57.7571 14.7547C56.2416 15.5774 54.8127 16.3568 53.3837 17.1363C53.2971 17.1796 53.1672 17.2229 53.0373 17.2229C52.7775 17.2229 52.5177 17.1363 52.3445 17.0497C46.1958 13.7155 40.0038 10.2947 33.985 6.96059L32.8592 6.35438C32.7726 6.31108 32.7293 6.26778 32.6427 6.18118C32.5994 6.13788 32.5561 6.09458 32.5128 6.05127L32.3396 5.87807L33.8118 5.05536ZM49.0104 25.7531C48.9671 24.6706 48.9238 23.6314 49.1403 22.6354C49.2269 22.1158 49.8331 21.7694 50.4393 21.423C50.6991 21.2931 50.9589 21.1199 51.1321 20.99L51.2187 20.9034L51.6517 21.2498V21.3364C51.6517 21.6828 51.6517 22.0725 51.6517 22.4189C51.6517 23.2417 51.6517 24.1077 51.695 24.9737C51.7383 25.7964 51.4785 26.2727 50.7857 26.5758C50.4826 26.7057 50.2228 26.8356 49.8764 27.0521C49.7032 27.1387 49.53 27.2686 49.3135 27.3552L49.0537 27.4851V27.2253C49.0537 26.6624 49.0104 26.1861 49.0104 25.7531ZM27.5332 8.69262C28.9621 7.3503 29.4818 7.26369 31.0406 8.08641C37.1027 11.4206 43.1215 14.7114 49.1836 18.0456C49.3568 18.1322 49.5733 18.2621 49.7465 18.392L50.2228 18.6951L50.0496 18.825C49.0537 19.6044 48.5774 19.9508 48.0578 19.9508C47.6247 19.9508 47.1484 19.691 46.2824 19.258C40.2636 15.9238 34.2015 12.633 28.1827 9.29883C28.0528 9.21223 27.9229 9.16893 27.793 9.08232L27.4466 8.86582L27.5332 8.69262ZM37.4058 46.1477V50.0881L23.9392 42.6837C21.7742 41.5146 19.5226 40.2588 17.3575 39.0464C17.0111 38.8299 16.5781 38.3103 16.5781 37.8773C16.5781 31.7286 16.5781 25.5366 16.5781 19.5178V16.7032C16.5781 16.6166 16.5781 16.53 16.6214 16.4001C16.6214 16.3135 16.6214 16.2702 16.6647 16.1403L16.708 15.8805L17.6606 16.4001C18.137 16.6599 18.6133 16.9198 19.0463 17.1796L21.7742 18.6951C26.6239 21.3797 31.6901 24.151 36.6264 26.8789C37.0161 27.0954 37.4058 27.615 37.4058 28.0047C37.4491 33.9802 37.4491 39.9124 37.4058 46.1477ZM39.0512 24.9737C38.9213 25.017 38.7914 25.0603 38.6615 25.0603C38.445 25.0603 38.2718 25.017 38.0986 24.9304C32.4262 21.856 26.7971 18.7384 20.9948 15.5774L17.8339 13.8454L18.0937 13.7155C18.5267 13.499 18.9164 13.2825 19.3494 13.066C20.1721 12.633 20.9948 12.2433 21.6443 11.7237C23.7661 10.0782 25.5414 10.5112 27.4899 11.6804C31.3437 13.9753 35.3706 16.1403 39.2244 18.2188C40.8265 19.0848 42.3853 19.9508 43.9875 20.8168C44.204 20.9467 44.3772 21.0333 44.637 21.1632L45.2865 21.5529L43.6411 22.4622C42.0822 23.285 40.5667 24.151 39.0512 24.9737ZM59.6623 39.1763C55.3756 41.5146 51.0022 43.8961 46.802 46.191L42.5586 48.5293C42.0389 48.8324 41.5193 49.0922 40.9131 49.3953L39.8306 50.0015V43.6796C39.8306 39.5227 39.8306 35.3659 39.8306 31.1657C39.8306 30.8193 39.7873 30.4296 39.7873 30.0832C39.7007 29.0873 39.6574 28.048 40.0904 27.3119C40.4801 26.6191 41.3894 26.2294 42.2554 25.8397C42.6018 25.6665 42.9916 25.5366 43.2947 25.3201C43.9875 24.9304 44.637 24.584 45.3731 24.1943L46.6721 23.5015V25.4933C46.6721 26.7057 46.6721 27.8315 46.6721 28.9574C46.6721 29.7368 46.8886 30.2564 47.235 30.4729C47.5814 30.6894 48.1444 30.6028 48.7939 30.2564C49.4434 29.91 50.0929 29.5636 50.6991 29.2172C51.4785 28.7841 52.2579 28.3511 53.0373 27.9614C53.7301 27.615 53.99 27.1387 53.99 26.4026C53.9467 24.6273 53.9467 22.6787 53.99 20.4704C53.99 20.124 54.0766 19.5178 54.423 19.3013C55.8952 18.4353 57.3674 17.6559 58.9262 16.7899C59.4025 16.53 59.9221 16.2702 60.3985 15.9671L60.6582 15.8372V18.0023C60.6582 19.2147 60.6582 29.91 60.6582 33.8936C60.6582 35.0628 60.6149 36.2752 60.6582 37.4443C60.7015 38.267 60.4417 38.7866 59.6623 39.1763Z" fill="#00828C"></path><path d="M10.9053 26.6621C10.862 26.6621 10.862 26.6621 10.8187 26.6621C10.7754 26.6621 10.7754 26.6621 10.7321 26.6621H10.6888C10.6022 26.6621 10.5156 26.7054 10.5156 26.8353C10.5156 26.9652 10.6022 26.9652 10.6888 27.0085H10.7321C10.7754 27.0085 10.8187 27.0085 10.8187 27.0085H10.862H10.9053C10.9919 27.0085 11.0785 26.9652 11.0785 26.8353C11.0785 26.7054 10.9919 26.7054 10.9053 26.6621C10.9486 26.6621 10.9486 26.6621 10.9053 26.6621Z" fill="#00828C"></path><path d="M4.5831 26.6192C4.9295 26.6192 5.27592 26.4893 5.49243 26.2728C5.70893 26.0562 5.79551 25.7531 5.79551 25.45C5.75221 24.7139 5.36251 24.3242 4.6697 24.3242C4.6697 24.3242 4.66971 24.3242 4.62641 24.3242C3.9336 24.3242 3.54388 24.6706 3.50058 25.4067C3.45728 25.7531 3.5872 26.0562 3.7604 26.2728C3.9336 26.4893 4.23669 26.6192 4.5831 26.6192Z" fill="#00828C"></path></svg>