<svg xmlns="http://www.w3.org/2000/svg" width="26" height="24" viewBox="0 0 26 24" fill="none"><path d="M1.6641 19.3936C1.6641 15.1618 1.6641 11.0036 1.6641 6.77185C1.36982 6.77185 1.11233 6.77185 0.854835 6.77185C0.376634 6.77185 0.19271 6.58786 0.19271 6.10948C0.19271 5.33672 0.19271 4.56396 0.19271 3.7912C0.19271 3.31282 0.339849 3.12883 0.854835 3.12883C1.59053 3.12883 2.28944 3.12883 3.06192 3.12883C3.06192 2.57686 3.06192 2.06168 3.06192 1.58331C3.06192 0.994538 3.20906 0.884143 3.76083 0.847345C5.269 0.847345 6.81396 0.847345 8.32214 0.847345C8.91069 0.847345 9.02105 0.994538 9.02105 1.54651C9.02105 2.06168 9.02105 2.54006 9.02105 3.09203C9.49925 3.09203 9.94067 3.09203 10.3453 3.09203C10.4924 3.09203 10.6396 3.09203 10.7867 3.09203C11.081 3.12883 11.2281 3.27602 11.2281 3.57041C11.2281 3.8648 11.0442 4.04879 10.7499 4.08558C10.4557 4.12238 10.1614 4.08558 9.8671 4.08558C7.14503 4.08558 4.42296 4.08558 1.6641 4.08558C1.51696 4.08558 1.33304 4.08558 1.14911 4.08558C1.14911 4.63756 1.14911 5.11593 1.14911 5.66791C9.02105 5.66791 16.893 5.66791 24.8017 5.66791C24.8017 5.15273 24.8017 4.67436 24.8017 4.08558C24.6546 4.08558 24.5074 4.08558 24.3235 4.08558C21.4175 4.08558 18.4747 4.08558 15.5687 4.08558C15.4584 4.08558 15.3112 4.08558 15.2009 4.08558C14.9066 4.04879 14.7227 3.8648 14.7227 3.57041C14.7227 3.27602 14.8698 3.09203 15.1641 3.09203C15.6055 3.05524 16.0101 3.09203 16.4516 3.05524C16.5987 3.05524 16.7458 3.05524 16.9298 3.05524C16.9298 2.50326 16.9298 1.98809 16.9298 1.47291C16.9298 0.95774 17.0769 0.810547 17.5919 0.810547C19.1369 0.810547 20.6818 0.810547 22.2636 0.810547C22.7785 0.810547 22.9257 0.95774 22.9257 1.47291C22.9257 1.98809 22.9257 2.50326 22.9257 3.05524C23.1832 3.05524 23.4039 3.05524 23.6246 3.05524C24.1764 3.05524 24.6913 3.05524 25.2431 3.05524C25.611 3.05524 25.7949 3.23923 25.7949 3.64401C25.7949 4.45357 25.7949 5.26313 25.7949 6.10948C25.7949 6.51426 25.611 6.69826 25.1695 6.73505C24.8753 6.73505 24.6178 6.73505 24.3235 6.73505C24.3235 10.9668 24.3235 15.125 24.3235 19.3568C24.6178 19.3568 24.9121 19.3568 25.2063 19.3568C25.611 19.3568 25.7949 19.5408 25.7949 19.9456C25.7949 20.7552 25.7949 21.5647 25.7949 22.3743C25.7949 22.8159 25.611 22.963 25.2063 22.9998C25.096 22.9998 24.9856 22.9998 24.8753 22.9998C16.9298 22.9998 8.98426 22.9998 1.03876 22.9998C0.19271 22.9998 0.119141 22.9262 0.119141 22.0431C0.119141 21.3439 0.119141 20.6816 0.119141 19.9824C0.119141 19.504 0.303064 19.3568 0.744481 19.3568C1.07554 19.3568 1.36982 19.3936 1.6641 19.3936ZM2.69407 19.3568C9.6096 19.3568 16.4883 19.3568 23.3671 19.3568C23.3671 15.1618 23.3671 10.9668 23.3671 6.80865C16.4516 6.80865 9.57282 6.80865 2.69407 6.80865C2.69407 10.9668 2.69407 15.1618 2.69407 19.3568ZM24.8753 20.3872C17.0033 20.3872 9.1314 20.3872 1.22268 20.3872C1.22268 20.9023 1.22268 21.4175 1.22268 21.9327C9.1314 21.9327 17.0033 21.9327 24.8753 21.9327C24.8753 21.4175 24.8753 20.9023 24.8753 20.3872ZM4.05511 1.87769C4.05511 2.31927 4.05511 2.68725 4.05511 3.09203C5.37936 3.09203 6.70361 3.09203 8.02786 3.09203C8.02786 2.68725 8.02786 2.28247 8.02786 1.87769C6.70361 1.87769 5.37936 1.87769 4.05511 1.87769ZM18.0701 3.09203C19.3943 3.09203 20.7186 3.09203 22.0061 3.09203C22.0061 2.65046 22.0061 2.28247 22.0061 1.87769C20.6818 1.87769 19.3576 1.87769 18.0701 1.87769C18.0701 2.31927 18.0701 2.68725 18.0701 3.09203Z" fill="#00828C" stroke="#00828C" stroke-width="0.1"></path><path d="M13.1045 3.12891C13.3988 3.1657 13.5459 3.3129 13.5459 3.60728C13.5459 3.90167 13.3252 4.12246 13.0309 4.12246C12.7367 4.08566 12.5527 3.93847 12.5527 3.64408C12.5527 3.3497 12.7734 3.12891 13.1045 3.12891Z" fill="#00828C" stroke="#00828C" stroke-width="0.1"></path><path d="M13.9875 11.7025C14.6128 11.7025 15.1646 11.7025 15.7531 11.7025C16.3785 11.7025 16.5624 12.0705 16.2681 12.5857C15.2381 14.352 14.1714 16.1551 13.1414 17.9214C12.9943 18.179 12.8103 18.363 12.5161 18.2526C12.185 18.179 12.1482 17.9214 12.1482 17.627C12.1482 16.7071 12.1482 15.7871 12.1482 14.8672C12.1482 14.72 12.1482 14.5728 12.1482 14.3888C11.5597 14.3888 11.0079 14.3888 10.4561 14.3888C9.794 14.3888 9.61007 14.0208 9.94114 13.4688C10.9711 11.7025 12.0011 9.973 13.0311 8.20669C13.1782 7.94911 13.3621 7.72832 13.6932 7.83871C14.0242 7.91231 14.061 8.20669 14.061 8.50108C14.061 9.42103 14.061 10.3042 14.061 11.2241C13.9875 11.3713 13.9875 11.5185 13.9875 11.7025ZM14.9806 12.7697C14.9071 12.7329 14.8703 12.7329 14.8703 12.7329C14.4657 12.7329 14.061 12.7329 13.6564 12.7329C13.1414 12.7329 12.9575 12.5489 12.9575 12.0337C12.9575 11.4817 12.9575 10.893 12.9575 10.341C12.9207 10.341 12.8839 10.341 12.8839 10.3042C12.2954 11.2977 11.7068 12.3281 11.0815 13.3952C11.4493 13.3952 11.7436 13.3952 12.0379 13.3952C13.0311 13.3952 13.1046 13.432 13.1046 14.4624C13.1046 14.904 13.1046 15.3823 13.1046 15.8239C13.1414 15.8239 13.1782 15.8239 13.1782 15.8239C13.8035 14.7936 14.3921 13.8 14.9806 12.7697Z" fill="#00828C" stroke="#00828C" stroke-width="0.1"></path><path d="M19.5045 12.5487C19.6149 11.7023 19.7252 11.5184 20.0563 11.5552C20.6816 11.6287 20.4977 12.1439 20.5713 12.5487C20.9391 12.6591 21.5645 12.4015 21.5645 13.1007C21.5645 13.763 20.9391 13.5055 20.5713 13.6159C20.4609 13.9838 20.7184 14.6094 20.0195 14.5726C19.3942 14.5726 19.5781 13.9838 19.5045 13.6159C19.0999 13.5055 18.4745 13.7262 18.5113 13.0639C18.5481 12.4383 19.0999 12.5855 19.5045 12.5487Z" fill="#00828C" stroke="#00828C" stroke-width="0.1"></path><path d="M6.07816 12.5488C6.40923 12.5488 6.7035 12.5488 7.03457 12.5488C7.36563 12.5488 7.58634 12.7328 7.58634 13.064C7.58634 13.3952 7.36563 13.5424 7.07135 13.5424C6.40922 13.5424 5.7471 13.5424 5.04819 13.5424C4.75391 13.5424 4.5332 13.3952 4.5332 13.064C4.5332 12.696 4.75391 12.5488 5.08497 12.5488C5.41604 12.5488 5.7471 12.5488 6.07816 12.5488Z" fill="#00828C" stroke="#00828C" stroke-width="0.1"></path></svg>