<svg xmlns="http://www.w3.org/2000/svg" width="28" height="27" viewBox="0 0 28 27" fill="none"><path d="M13.9484 26.4779C9.77141 26.4779 5.59446 26.4779 1.4175 26.4779C1.25838 26.4779 1.13904 26.4779 0.979916 26.4779C0.661671 26.4779 0.462769 26.3265 0.422988 25.9857C0.383208 25.645 0.58211 25.4179 0.940135 25.4179C1.4175 25.4179 1.45728 25.1908 1.45728 24.8122C1.45728 19.9665 1.45728 15.1209 1.45728 10.2752C1.45728 9.44236 1.6164 9.29093 2.49158 9.29093C2.92916 9.29093 3.32697 9.29093 3.76455 9.29093C4.04302 9.29093 4.16236 9.17736 4.16236 8.91236C4.16236 8.2688 4.16236 7.58738 4.16236 6.94382C4.16236 6.71668 4.20214 6.48954 4.44082 6.37597C4.6795 6.2624 4.91819 6.30025 5.15687 6.45167C5.75358 6.83024 6.31051 7.20882 6.90721 7.54953C6.98677 7.62524 7.10612 7.70095 7.18568 7.66309C7.3448 7.62524 7.26524 7.43595 7.26524 7.32238C7.26524 5.77026 7.26524 4.18028 7.26524 2.62815C7.26524 1.94673 7.3448 1.83316 7.98129 1.64388C10.6466 0.773171 13.3914 0.508174 16.2159 0.886741C17.4888 1.03817 18.722 1.30317 19.9552 1.68173C20.5122 1.83316 20.6315 1.98458 20.6315 2.55243C20.6315 4.10456 20.6315 5.69454 20.6315 7.24667C20.6315 7.39809 20.5519 7.58738 20.7111 7.66309C20.8702 7.73881 20.9895 7.58738 21.1089 7.51167C21.6658 7.17096 22.2227 6.83024 22.7796 6.48953C23.0183 6.33811 23.2172 6.2624 23.4957 6.37597C23.7742 6.48954 23.8139 6.71668 23.8139 6.98168C23.8139 7.62524 23.8139 8.2688 23.8139 8.91236C23.8139 9.21521 23.8935 9.32879 24.2117 9.32879C24.6891 9.32879 25.1267 9.32879 25.6041 9.32879C26.2803 9.32879 26.4792 9.51807 26.4792 10.1616C26.4792 12.9252 26.4792 15.6887 26.4792 18.4523C26.4792 20.5722 26.4792 22.7301 26.4792 24.85C26.4792 25.1908 26.519 25.4179 26.9964 25.4179C27.3146 25.4179 27.5533 25.645 27.5135 25.9857C27.4737 26.3265 27.2748 26.4779 26.9168 26.4779C26.519 26.4779 26.1212 26.4779 25.6836 26.4779C21.7453 26.4779 17.8469 26.4779 13.9484 26.4779ZM13.9484 18.8308C15.1816 18.8308 16.4545 18.8308 17.6877 18.8308C18.2049 18.8308 18.4436 19.0201 18.4833 19.3987C18.4833 19.7394 18.2844 19.9287 17.7673 19.9665C17.5684 20.0044 17.4491 20.0422 17.4491 20.2694C17.4491 21.8594 17.4491 23.4872 17.4491 25.0772C17.4491 25.3043 17.5684 25.38 17.7673 25.38C18.1651 25.38 18.5629 25.38 18.9607 25.38C19.3187 25.4179 19.4381 25.2665 19.4381 24.9258C19.4381 22.6922 19.4381 20.4587 19.4381 18.2251C19.4381 17.8466 19.279 17.733 18.9209 17.6194C17.4491 17.2408 15.9772 16.9758 14.4257 16.938C12.5163 16.8623 10.6068 17.0894 8.7769 17.6573C8.57799 17.733 8.45865 17.8087 8.45865 18.0358C8.45865 20.3451 8.45865 22.6922 8.45865 25.0015C8.45865 25.2665 8.578 25.3422 8.85646 25.3422C9.25426 25.3422 9.61229 25.3043 10.0101 25.3422C10.3681 25.38 10.4875 25.2286 10.4875 24.8879C10.4875 23.4115 10.4875 21.9351 10.4875 20.4208C10.4875 20.0801 10.4079 19.8908 10.0101 19.8908C9.73163 19.8908 9.53273 19.7394 9.45317 19.4744C9.41339 19.2094 9.49295 19.0201 9.73163 18.9065C9.89075 18.793 10.0897 18.793 10.2886 18.793C11.5218 18.8308 12.7152 18.8308 13.9484 18.8308ZM5.27621 16.5973C5.27621 17.468 5.27621 18.3766 5.27621 19.2473C5.27621 21.1401 5.27621 23.0329 5.27621 24.9258C5.27621 25.2665 5.39555 25.4179 5.75358 25.38C6.07182 25.3422 6.42985 25.3422 6.74809 25.38C7.10612 25.4179 7.26524 25.3043 7.26524 24.9258C7.22546 23.9415 7.26524 22.9572 7.26524 22.0108C7.26524 17.8844 7.26524 13.7959 7.26524 9.66949C7.26524 9.29093 7.18568 9.02594 6.82765 8.83665C6.42985 8.60951 6.07182 8.38238 5.7138 8.11738C5.59446 8.04166 5.47511 7.89023 5.35577 7.96594C5.23643 8.04166 5.27621 8.19308 5.27621 8.34451C5.27621 11.0702 5.27621 13.8337 5.27621 16.5973ZM22.6205 16.6351C22.6205 15.348 22.6205 14.0609 22.6205 12.7738C22.6205 11.2595 22.6205 9.74521 22.6205 8.23094C22.6205 8.11737 22.6603 8.00381 22.541 7.92809C22.4614 7.89024 22.3818 8.0038 22.3023 8.04166C21.9045 8.30666 21.5067 8.57165 21.1089 8.79879C20.7508 8.98808 20.6315 9.25308 20.6315 9.63165C20.6315 14.6666 20.6315 19.7394 20.6315 24.7743C20.6315 24.8501 20.6315 24.9258 20.6315 25.0015C20.6315 25.2286 20.7111 25.3422 20.9895 25.3422C21.3078 25.3422 21.626 25.3422 21.9045 25.3422C22.6205 25.3422 22.6205 25.3422 22.6205 24.6608C22.6205 22.0108 22.6205 19.323 22.6205 16.6351ZM4.16236 17.9223C4.16236 15.6887 4.16236 13.4552 4.16236 11.2216C4.16236 10.3131 4.2817 10.4266 3.28719 10.4266C2.6507 10.4266 2.6507 10.4266 2.6507 11.0323C2.6507 15.5373 2.6507 20.0044 2.6507 24.5093C2.6507 25.5315 2.53136 25.38 3.64521 25.4179C4.04302 25.4179 4.16236 25.3043 4.16236 24.9258C4.12258 22.5786 4.16236 20.2315 4.16236 17.9223ZM23.7742 17.9223C23.7742 20.1558 23.7742 22.3515 23.7742 24.5851C23.7742 25.5315 23.6548 25.4179 24.6493 25.4179C25.246 25.4179 25.246 25.4179 25.246 24.85C25.246 20.3451 25.246 15.8023 25.246 11.2973C25.246 10.3509 25.3256 10.4645 24.3311 10.4266C23.7742 10.4266 23.7742 10.4266 23.7742 10.9945C23.7742 13.2659 23.7742 15.5752 23.7742 17.9223ZM13.7495 7.85238C12.3571 7.92809 10.8853 8.04166 9.45317 8.42023C8.25975 8.76094 8.49843 8.57166 8.49843 9.59379C8.49843 10.5023 8.49843 10.5402 9.41339 10.3131C10.925 9.9345 12.5163 9.74522 14.0677 9.78307C15.7783 9.82093 17.4491 10.0481 19.0801 10.5023C19.3585 10.5781 19.4381 10.4645 19.4381 10.2373C19.4381 9.85878 19.4381 9.51807 19.4381 9.1395C19.4381 8.83665 19.3585 8.68522 19.0403 8.60951C17.3297 8.15523 15.5794 7.92809 13.7495 7.85238ZM13.9881 1.83316C12.1582 1.83316 10.5272 2.09815 8.93602 2.51458C8.61777 2.59029 8.45865 2.74172 8.49843 3.08243C8.53821 3.42314 8.49843 3.76385 8.49843 4.14242C8.49843 4.44528 8.578 4.52098 8.89624 4.40741C10.4477 3.95313 12.0787 3.726 13.7097 3.726C15.4998 3.726 17.2501 3.95313 19.0005 4.40741C19.4381 4.52098 19.4779 4.52098 19.4779 4.0667C19.4779 3.76385 19.4381 3.42314 19.4779 3.12029C19.5176 2.77957 19.3585 2.666 19.0403 2.55243C17.2899 2.09815 15.5794 1.83316 13.9881 1.83316ZM13.7097 13.9473C12.2378 13.9095 10.6864 14.1366 9.13492 14.553C8.49843 14.7423 8.49843 14.7423 8.49843 15.3859C8.49843 15.613 8.49843 15.878 8.49843 16.1051C8.49843 16.5594 8.53821 16.5594 8.9758 16.4459C11.0444 15.9159 13.113 15.6887 15.2611 15.878C16.5341 15.9916 17.8071 16.1809 19.0801 16.5216C19.3585 16.5973 19.4779 16.5216 19.4779 16.2566C19.4779 15.878 19.4779 15.5373 19.4779 15.1587C19.4779 14.8559 19.3983 14.7044 19.0403 14.6287C17.3297 14.1744 15.6191 13.9473 13.7097 13.9473ZM13.7097 4.89956C12.198 4.8617 10.6864 5.08883 9.1747 5.50525C8.49843 5.69454 8.49843 5.69455 8.49843 6.37597C8.49843 6.60311 8.49843 6.83024 8.49843 7.05738C8.49843 7.54952 8.53821 7.54952 9.05536 7.43595C11.1637 6.8681 13.3119 6.67882 15.46 6.8681C16.6534 6.98167 17.8469 7.17096 19.0005 7.47381C19.3187 7.54952 19.4779 7.54953 19.4381 7.17096C19.3983 6.83025 19.3983 6.48953 19.4381 6.11096C19.4381 5.80811 19.3187 5.65669 19.0005 5.58097C17.2899 5.12669 15.5794 4.8617 13.7097 4.89956ZM19.4381 12.6602C19.4381 12.5466 19.4381 12.433 19.4381 12.2816C19.5176 11.8652 19.3187 11.6759 18.8811 11.5623C15.6987 10.7295 12.4765 10.6159 9.29404 11.4488C8.49843 11.6759 8.49843 11.6759 8.49843 12.4709C8.49843 12.698 8.49843 12.8873 8.49843 13.1145C8.45865 13.493 8.61777 13.5309 8.9758 13.4173C10.0499 13.0766 11.2035 12.9252 12.3174 12.8116C14.4257 12.6223 16.4943 12.8495 18.5231 13.3037C19.4381 13.5687 19.4381 13.5687 19.4381 12.6602ZM11.6411 22.6544C11.6411 23.4494 11.6411 24.2443 11.6411 25.0015C11.6411 25.2665 11.7207 25.38 12.0389 25.38C12.3174 25.38 12.6356 25.3422 12.9141 25.38C13.2721 25.4179 13.3914 25.2665 13.3914 24.9258C13.3914 23.6765 13.3914 22.4272 13.3914 21.1779C13.3914 19.9665 13.3914 19.9665 12.1185 19.9665C11.7604 19.9665 11.6013 20.0422 11.6411 20.4208C11.6411 21.1401 11.6411 21.8972 11.6411 22.6544ZM16.2954 22.6922C16.2954 21.9351 16.2954 21.1401 16.2954 20.383C16.2954 20.0801 16.1761 19.9665 15.8578 19.9665C15.5794 19.9665 15.2611 19.9665 14.9827 19.9665C14.6644 19.9665 14.5451 20.0801 14.5451 20.3451C14.5451 21.8972 14.5451 23.4493 14.5451 25.0015C14.5451 25.2665 14.6246 25.4179 14.9429 25.38C15.2611 25.38 15.5794 25.38 15.8976 25.38C16.1761 25.38 16.2954 25.3043 16.2954 25.0015C16.2954 24.2443 16.2954 23.4494 16.2954 22.6922Z" fill="#00828C"></path></svg>