<svg xmlns="http://www.w3.org/2000/svg" width="111" height="111" viewBox="0 0 111 111" fill="none"><path d="M55.5 110.5C25.1243 110.5 0.500004 85.8757 0.500005 55.5C0.500007 25.1243 25.1244 0.499996 55.5 0.499998C85.8757 0.499999 110.5 25.1243 110.5 55.5C110.5 85.8757 85.8757 110.5 55.5 110.5Z" fill="white" stroke="#008796"></path><path d="M81.3371 56.5729C81.6571 56.7677 81.6571 57.2323 81.3371 57.4271L81.5971 57.8541L81.3371 57.4271L43.01 80.7622C42.6768 80.9651 42.25 80.7252 42.25 80.3351L42.25 33.6649C42.25 33.2748 42.6768 33.0349 43.01 33.2378L81.3371 56.5729L81.5971 56.1459L81.3371 56.5729Z" fill="#00828C" stroke="#008796"></path></svg>