<svg xmlns="http://www.w3.org/2000/svg" width="30" height="30" viewBox="0 0 30 30" fill="none"><ellipse cx="15" cy="15" rx="15" ry="15" transform="rotate(90 15 15)" fill="white"></ellipse><path d="M14.908 20.14C14.1427 20.14 13.438 20.014 12.794 19.762C12.15 19.51 11.59 19.16 11.114 18.712C10.638 18.2547 10.2693 17.7227 10.008 17.116C9.74667 16.5 9.616 15.828 9.616 15.1C9.616 14.372 9.74667 13.7047 10.008 13.098C10.2693 12.482 10.638 11.95 11.114 11.502C11.59 11.0447 12.15 10.69 12.794 10.438C13.438 10.186 14.138 10.06 14.894 10.06C15.6593 10.06 16.3593 10.186 16.994 10.438C17.638 10.69 18.198 11.04 18.674 11.488C19.15 11.936 19.5187 12.468 19.78 13.084C20.0413 13.7 20.172 14.372 20.172 15.1C20.172 15.828 20.0413 16.5 19.78 17.116C19.5187 17.732 19.15 18.264 18.674 18.712C18.198 19.16 17.638 19.51 16.994 19.762C16.3593 20.014 15.664 20.14 14.908 20.14ZM18.1 22.142C17.7547 22.142 17.4187 22.1 17.092 22.016C16.7747 21.9413 16.4573 21.8107 16.14 21.624C15.832 21.4467 15.51 21.2087 15.174 20.91C14.838 20.6207 14.4693 20.2613 14.068 19.832L16 19.328C16.2613 19.6733 16.5087 19.9487 16.742 20.154C16.9847 20.3687 17.218 20.5227 17.442 20.616C17.666 20.7093 17.8993 20.756 18.142 20.756C18.786 20.756 19.346 20.4947 19.822 19.972L20.662 20.98C20.0087 21.7547 19.1547 22.142 18.1 22.142ZM14.894 18.544C15.3887 18.544 15.846 18.46 16.266 18.292C16.686 18.124 17.05 17.886 17.358 17.578C17.666 17.2607 17.904 16.892 18.072 16.472C18.2493 16.052 18.338 15.5947 18.338 15.1C18.338 14.596 18.2493 14.1387 18.072 13.728C17.904 13.308 17.666 12.944 17.358 12.636C17.05 12.3187 16.686 12.076 16.266 11.908C15.846 11.74 15.3887 11.656 14.894 11.656C14.3993 11.656 13.942 11.74 13.522 11.908C13.102 12.076 12.738 12.3187 12.43 12.636C12.122 12.944 11.8793 13.308 11.702 13.728C11.534 14.1387 11.45 14.596 11.45 15.1C11.45 15.5947 11.534 16.052 11.702 16.472C11.8793 16.892 12.122 17.2607 12.43 17.578C12.738 17.886 13.102 18.124 13.522 18.292C13.942 18.46 14.3993 18.544 14.894 18.544Z" fill="#00828C"></path></svg>