<svg xmlns="http://www.w3.org/2000/svg" width="59" height="59" viewBox="0 0 59 59" fill="none"><path d="M46.7057 17.2083H39.3307V13.5208C39.3307 11.8909 38.6832 10.3276 37.5307 9.17507C36.3781 8.02251 34.8149 7.375 33.1849 7.375H25.8099C24.1799 7.375 22.6167 8.02251 21.4641 9.17507C20.3116 10.3276 19.6641 11.8909 19.6641 13.5208V17.2083H12.2891C10.3331 17.2083 8.45723 17.9853 7.07415 19.3684C5.69107 20.7515 4.91406 22.6274 4.91406 24.5833V44.25C4.91406 46.206 5.69107 48.0818 7.07415 49.4649C8.45723 50.848 10.3331 51.625 12.2891 51.625H46.7057C48.6617 51.625 50.5376 50.848 51.9206 49.4649C53.3037 48.0818 54.0807 46.206 54.0807 44.25V24.5833C54.0807 22.6274 53.3037 20.7515 51.9206 19.3684C50.5376 17.9853 48.6617 17.2083 46.7057 17.2083ZM36.8724 22.125V46.7083H22.1224V22.125H36.8724ZM24.5807 13.5208C24.5807 13.1948 24.7102 12.8822 24.9407 12.6517C25.1713 12.4212 25.4839 12.2917 25.8099 12.2917H33.1849C33.5109 12.2917 33.8235 12.4212 34.0541 12.6517C34.2846 12.8822 34.4141 13.1948 34.4141 13.5208V17.2083H24.5807V13.5208ZM9.83073 44.25V24.5833C9.83073 23.9313 10.0897 23.3061 10.5508 22.845C11.0118 22.384 11.6371 22.125 12.2891 22.125H17.2057V46.7083H12.2891C11.6371 46.7083 11.0118 46.4493 10.5508 45.9883C10.0897 45.5273 9.83073 44.902 9.83073 44.25ZM49.1641 44.25C49.1641 44.902 48.9051 45.5273 48.444 45.9883C47.983 46.4493 47.3577 46.7083 46.7057 46.7083H41.7891V22.125H46.7057C47.3577 22.125 47.983 22.384 48.444 22.845C48.9051 23.3061 49.1641 23.9313 49.1641 24.5833V44.25Z" fill="white"></path></svg>