<svg xmlns="http://www.w3.org/2000/svg" width="45" height="45" viewBox="0 0 45 45" fill="none"><path d="M22.5 44C10.6259 44 1 34.3741 1 22.5C1 10.6259 10.6259 0.999998 22.5 0.999999C34.3741 1 44 10.6259 44 22.5C44 34.3741 34.3741 44 22.5 44Z" fill="white" stroke="#00828C" stroke-width="2"></path><path d="M16.72 29.2C15.6 29.2 14.6 28.92 13.72 28.36C12.84 27.7867 12.1467 26.96 11.64 25.88C11.1333 24.7867 10.88 23.4933 10.88 22C10.88 20.5067 11.1333 19.22 11.64 18.14C12.1467 17.0467 12.84 16.22 13.72 15.66C14.6 15.0867 15.6 14.8 16.72 14.8C17.84 14.8 18.84 15.0867 19.72 15.66C20.6133 16.22 21.3133 17.0467 21.82 18.14C22.3267 19.22 22.58 20.5067 22.58 22C22.58 23.4933 22.3267 24.7867 21.82 25.88C21.3133 26.96 20.6133 27.7867 19.72 28.36C18.84 28.92 17.84 29.2 16.72 29.2ZM16.72 26.94C17.72 26.94 18.5067 26.5267 19.08 25.7C19.6667 24.8733 19.96 23.64 19.96 22C19.96 20.36 19.6667 19.1267 19.08 18.3C18.5067 17.4733 17.72 17.06 16.72 17.06C15.7333 17.06 14.9467 17.4733 14.36 18.3C13.7867 19.1267 13.5 20.36 13.5 22C13.5 23.64 13.7867 24.8733 14.36 25.7C14.9467 26.5267 15.7333 26.94 16.72 26.94ZM34.3794 26.8V29H24.0594V27.26L29.6194 21.98C30.246 21.38 30.666 20.86 30.8794 20.42C31.106 19.9667 31.2194 19.52 31.2194 19.08C31.2194 18.4267 30.9994 17.9267 30.5594 17.58C30.1194 17.2333 29.4727 17.06 28.6194 17.06C27.1927 17.06 26.0994 17.5467 25.3394 18.52L23.5194 17.12C24.066 16.3867 24.7994 15.82 25.7194 15.42C26.6527 15.0067 27.6927 14.8 28.8394 14.8C30.3594 14.8 31.5727 15.16 32.4794 15.88C33.386 16.6 33.8394 17.58 33.8394 18.82C33.8394 19.58 33.6794 20.2933 33.3594 20.96C33.0394 21.6267 32.426 22.3867 31.5194 23.24L27.7794 26.8H34.3794Z" fill="#00828C"></path></svg>