<svg xmlns="http://www.w3.org/2000/svg" width="40" height="49" viewBox="0 0 40 49" fill="none"><g clip-path="url(#clip0_2362_10056)"><path d="M9.46421 33.2092H1.57812V49H9.46421V33.2092Z" fill="#007B85"></path><path d="M19.6283 29.7773H11.7422V48.9991H19.6283V29.7773Z" fill="#007B85"></path><path d="M29.8353 21.6855H21.9492V49.0006H29.8353V21.6855Z" fill="#007B85"></path><path d="M39.9994 13.2832H32.1133V48.9995H39.9994V13.2832Z" fill="#007B85"></path><path d="M32.2463 7.91741L35.3131 9.8088L35.4884 0L27.0765 4.75045L30.3186 6.77379C21.3372 20.7172 0.921015 29.2504 0.701957 29.3384C0.132406 29.5583 -0.130464 30.2181 0.0885941 30.7899C0.263841 31.2298 0.701957 31.4937 1.14007 31.4937C1.27151 31.4937 1.40294 31.4497 1.57819 31.4057C1.84106 31.3178 7.93087 28.7666 15.0722 24.1481C22.8268 19.0458 28.61 13.6355 32.2463 7.91741Z" fill="#87E1E8"></path></g><defs><clipPath id="clip0_2362_10056"><rect width="40" height="49" fill="white"></rect></clipPath></defs></svg>