<svg xmlns="http://www.w3.org/2000/svg" xmlns:xlink="http://www.w3.org/1999/xlink" id="&#x5716;&#x5C64;_1" x="0px" y="0px" viewBox="0 0 60 60" style="enable-background:new 0 0 60 60;" xml:space="preserve"><style type="text/css">	.st0{fill:#008796;}	.st1{fill:#FFFFFF;}</style><g>	<path class="st0" d="M0,5c0-2.8,2.2-5,5-5h50c2.8,0,5,2.2,5,5v50c0,2.8-2.2,5-5,5H5c-2.8,0-5-2.2-5-5V5z"></path></g><path class="st1" d="M17.2,14.9c-0.4,0-0.7,0-1.1,0c-1.9,0-3.5,1.5-3.5,3.4c0,8.3,0,16.9,0,25.5c0,1.9,1.5,3.5,3.5,3.5 c9,0,18.4,0,27.7,0c1.9,0,3.5-1.5,3.5-3.5c0-7.7,0-15.8,0-25.5c0-1.3-0.5-2.2-1.6-2.8c-0.7-0.4-1.4-0.5-1.9-0.6 c-0.6-0.1-1.3-0.1-2,0h0c-0.3,0-0.6,0-0.9,0h-0.3v-0.7c0-0.2,0-0.4,0-0.7c0-0.5-0.3-0.9-0.7-0.9c-0.4,0-0.8,0.3-0.8,0.9 c0,0.2,0,0.5,0,0.7c0,0.1,0,0.2,0,0.3v0.3h-5l0-0.2c0-0.2,0-0.5,0-0.7c0-0.8,0-1.2-0.7-1.2c-0.3,0-0.5,0.1-0.6,0.2 c-0.2,0.2-0.2,0.6-0.2,1c0,0.2,0,0.5-0.1,0.7l0,0.2h-5v-0.3c0-0.1,0-0.2,0-0.4c0-0.2,0-0.5,0-0.7c0-0.5-0.4-0.8-0.8-0.8 c-0.4,0-0.8,0.4-0.8,0.9c0,0.2,0,0.5,0,0.7v0.6h-5l-0.1-0.2c-0.1-0.2-0.1-0.5-0.1-0.8c0-0.4,0-0.8-0.2-1c-0.1-0.1-0.3-0.2-0.6-0.2 c-0.7,0-0.8,0.4-0.8,1.2c0,0.2,0,0.5,0,0.8l0,0.2h-1.1C17.8,14.9,17.5,14.9,17.2,14.9z M43.5,45.8c-4.5,0-9,0-13.5,0 c-4.5,0-9,0-13.5,0c-1.6,0-2.3-0.7-2.3-2.3c0-4.8,0-9.7,0-14.5v-5.9h31.6l0,0.2c0,0.1,0,0.1,0,0.2v0c0,0.2,0,0.3,0,0.5 c0,6.5,0,13,0,19.5C45.8,45.1,45.1,45.8,43.5,45.8z M18.1,16.4c0.3,0,0.6,0,0.9,0h0.3v0.3c0,0.1,0,0.2,0,0.4c0,0.3,0,0.5,0,0.7 c0,0.5,0.3,0.8,0.8,0.8c0.4,0,0.7-0.3,0.8-0.8c0-0.2,0-0.5,0-0.7c0-0.1,0-0.2,0-0.4v-0.3h5.1v0.6c0,0.2,0,0.5,0,0.7 c0,0.5,0.4,0.9,0.8,0.9s0.7-0.4,0.8-0.8c0-0.2,0-0.5,0-0.7c0-0.1,0-0.2,0-0.4v-0.3h5l0,0.2c0.1,1.1,0.2,1.7,0.5,1.9 c0.1,0.1,0.1,0.1,0.4,0.1c0.8-0.1,0.8-0.5,0.8-1.3c0-0.2,0-0.4,0-0.7l0-0.3h5v0.3c0,0.1,0,0.2,0,0.3c0,0.2,0,0.5,0,0.7 c0,0.5,0.3,0.9,0.8,0.9c0.4,0,0.7-0.4,0.8-0.9c0-0.2,0-0.4,0-0.7v-0.6H41c0.3,0,0.6,0,0.9,0h0.1c0.7,0,1.4,0,2,0 c1.1,0.1,1.8,0.9,1.8,2c0,0.7,0,1.3,0,1.9v0.1c0,0.2,0,0.4,0,0.6c0,0.1,0,0.2-0.1,0.2c0,0,0,0.1,0,0.1l-0.1,0.2H14.3v-0.3 c0-0.3,0-0.7,0-1c0-0.8,0-1.5,0-2.2c0.1-0.9,0.9-1.6,1.9-1.7C16.8,16.4,17.4,16.4,18.1,16.4z"></path><path class="st1" d="M17.7,32.1c0,0.6,0.3,0.8,0.8,0.8c1.5,0,2.9,0,4.2,0c0.5,0,0.8-0.3,0.8-0.8c0-1.4,0-2.9,0-4.3 c0-0.5-0.3-0.8-0.8-0.8c-1.4,0-2.8,0-4.2,0c-0.6,0-0.8,0.3-0.8,0.8c0,0.5,0,1,0,1.4v0.6v0.7C17.7,31.1,17.7,31.6,17.7,32.1z  M19.2,28.6H22v2.8h-2.8V28.6z"></path><path class="st1" d="M36.5,27.9c0,1.5,0,2.9,0,4.4c0,0.5,0.3,0.8,0.8,0.8c1.5,0,2.9,0,4.3,0c0.5,0,0.8-0.3,0.8-0.8c0-0.5,0-1,0-1.5 V30v-0.7c0-0.5,0-1,0-1.5c0-0.6-0.3-0.9-0.8-0.9c-0.7,0-1.4,0-2.1,0c-0.7,0-1.4,0-2.2,0C36.8,27,36.5,27.3,36.5,27.9z M38,28.6h2.8 v2.8H38V28.6z"></path><path class="st1" d="M27.1,36.8c0,1.3,0,2.6,0,4.2c0,0.6,0.3,0.9,0.8,0.9c1.4,0,2.9,0,4.3,0c0.5,0,0.8-0.3,0.8-0.8 c0-1.4,0-2.8,0-4.2c0-0.6-0.3-0.8-0.9-0.8c-0.5,0-1,0-1.4,0h-0.7h-1.3c-0.3,0-0.5,0-0.8,0C27.3,35.9,27.1,36.2,27.1,36.8z  M28.6,37.4h2.8v2.8h-2.8V37.4z"></path><path class="st1" d="M17.7,40.9c0,0.6,0.2,0.9,0.8,0.9c1.4,0,2.8,0,4.3,0c0.5,0,0.8-0.3,0.8-0.8c0-1.5,0-3,0-4.4 c0-0.5-0.3-0.7-0.8-0.7c-0.8,0-1.5,0-2.2,0c-0.8,0-1.5,0-2.2,0c-0.5,0-0.8,0.3-0.8,0.8c0,0.5,0,1,0,1.5v0c0,0.2,0,0.5,0,0.7v0.6 C17.7,40,17.7,40.5,17.7,40.9z M19.2,37.5H22v2.8h-2.8V37.5z"></path><path class="st1" d="M37.3,41.8c1.4,0,2.9,0,4.3,0c0.5,0,0.8-0.3,0.8-0.8c0-1.4,0-2.8,0-4.2c0-0.6-0.3-0.8-0.8-0.8c-0.5,0-1,0-1.5,0 h-0.7h-0.7c-0.2,0-0.4,0-0.7,0c-0.3,0-0.5,0-0.8,0c-0.5,0-0.8,0.3-0.8,0.8c0,1.4,0,2.8,0,4.3C36.5,41.5,36.7,41.8,37.3,41.8z  M38,37.4h2.8v2.8H38V37.4z"></path><path class="st1" d="M32.8,29.1c0.4-0.4,0.5-0.9,0.1-1.2c-0.4-0.4-0.9-0.2-1.2,0.1c-0.5,0.5-1,1-1.5,1.6l-0.9,1l-0.2-0.2 c-0.1-0.1-0.2-0.2-0.3-0.3c-0.2-0.2-0.3-0.4-0.5-0.5c-0.2-0.2-0.4-0.2-0.6-0.2c-0.2,0-0.4,0.1-0.5,0.2c-0.3,0.3-0.3,0.8,0.1,1.1 c0.5,0.5,0.9,1,1.4,1.4c0.5,0.4,0.8,0.4,1.3,0C30.7,31.2,31.7,30.2,32.8,29.1z"></path></svg>