<svg xmlns="http://www.w3.org/2000/svg" xmlns:xlink="http://www.w3.org/1999/xlink" id="&#x5716;&#x5C64;_1" x="0px" y="0px" viewBox="0 0 60 60" style="enable-background:new 0 0 60 60;" xml:space="preserve"><style type="text/css">	.st0{fill:#008796;}	.st1{fill:#FFFFFF;}</style><g>	<path class="st0" d="M0,5c0-2.8,2.2-5,5-5h50c2.8,0,5,2.2,5,5v50c0,2.8-2.2,5-5,5H5c-2.8,0-5-2.2-5-5V5z"></path></g><path class="st1" d="M30,47.4c-9.5,0.2-17.4-7.9-17.4-17.4c0-9.5,7.9-17.4,17.4-17.4c9.5,0,17.4,7.9,17.4,17.4 C47.4,39.5,39.5,47.5,30,47.4z M28.8,14.2c-0.1,0-0.2,0-0.2,0c-4.1,0.5-7.6,2.2-10.3,5.2c-2.3,2.6-3.6,5.6-4,9.1 c-0.1,0.5,0.1,0.7,0.6,0.7c0.6,0,1.2,0,1.8,0c0.7,0,1,0.3,1,0.8c0,0.5-0.3,0.8-1,0.8c-0.6,0-1.1,0-1.7,0c-0.5,0-0.7,0.2-0.7,0.7 c0.3,2.3,0.9,4.5,2.2,6.5c2.8,4.6,6.9,7.1,12.2,7.8c0.5,0.1,0.7-0.1,0.7-0.6c0-0.7,0-1.4,0-2.1c0-0.4,0.3-0.7,0.7-0.8 c0.5,0,0.8,0.3,0.8,0.8c0,0.4,0,0.7,0,1c0,2.1-0.2,1.8,1.7,1.4c4.8-0.8,8.5-3.3,11-7.5c1.3-2.1,2-4.4,2.2-6.8 c0.1-0.5-0.1-0.7-0.6-0.7c-0.5,0-1.1,0-1.7,0c-0.8,0-1.2-0.2-1.2-0.8c0-0.5,0.4-0.8,1.2-0.8c0.5,0,1.1,0,1.6,0 c0.6,0.1,0.7-0.2,0.6-0.7c-0.4-3.3-1.6-6.3-3.8-8.8c-2.8-3.2-6.4-5-10.6-5.4c-0.5-0.1-0.7,0.1-0.6,0.6c0,0.6,0,1.3,0,1.9 c0,0.6-0.3,0.9-0.8,0.9c-0.5,0-0.8-0.3-0.8-0.9c0-0.7,0-1.4,0-2C29.2,14.3,29.1,14.2,28.8,14.2z"></path><path class="st1" d="M21.1,39.8c-0.7,0-1-0.4-0.8-0.9c0.1-0.4,0.2-0.8,0.4-1.2c1.3-3.4,2.6-6.8,3.9-10.3c0.5-1.4,1.5-2.3,2.9-2.9 c3.6-1.3,7.2-2.7,10.7-4.1c0.2-0.1,0.4-0.1,0.5-0.2c0.3-0.1,0.7-0.1,0.9,0.1c0.3,0.3,0.2,0.6,0.1,0.9c-0.1,0.4-0.3,0.8-0.4,1.2 c-1.3,3.4-2.6,6.8-3.9,10.2c-0.5,1.3-1.4,2.2-2.6,2.6c-3.6,1.4-7.2,2.8-10.8,4.1C21.7,39.6,21.4,39.7,21.1,39.8z M29.8,27.1 c2,0,3.4,1.7,3,3.4c-0.2,0.7-0.1,1.1,0.5,1.5c0.6,0.5,0.6,0.5,0.9-0.2c1.1-3,2.3-6,3.4-9c0.1-0.2,0.2-0.4,0.1-0.5 c-0.2-0.1-0.4,0-0.5,0.1c-2.2,0.8-4.5,1.7-6.7,2.5c-0.8,0.3-1.7,0.7-2.5,1c-0.2,0.1-0.5,0.1-0.3,0.4c0.3,0.6,1.1,1,1.7,0.8 C29.6,27.2,29.8,27.2,29.8,27.1z M22.3,37.7c3.3-1.3,6.5-2.5,9.8-3.7c0.6-0.2,0.7-0.3,0.1-0.7c-0.3-0.3-0.5-0.9-1.2-0.6 c-1.1,0.4-2.2,0.2-3.1-0.7c-0.9-0.9-1.1-1.9-0.7-3.1c0.1-0.4,0.1-0.6-0.2-0.8c-0.2-0.2-0.4-0.3-0.5-0.5c-0.2-0.3-0.4-0.3-0.5,0.1 c-0.3,0.8-0.6,1.6-0.9,2.4C24.2,32.6,23.3,35.1,22.3,37.7z M30,28.7c-0.7,0-1.3,0.5-1.4,1.3c0,0.7,0.5,1.3,1.3,1.4 c0.7,0,1.3-0.5,1.4-1.3C31.3,29.3,30.8,28.7,30,28.7z"></path></svg>