<svg xmlns="http://www.w3.org/2000/svg" width="42" height="50" viewBox="0 0 42 50" fill="none"><path d="M20.734 11.5439C13.4007 11.5439 7.35067 17.5695 7.28956 24.941C7.25901 28.489 8.634 31.8841 11.1396 34.4228C13.6757 36.9921 17.0673 38.4297 20.7034 38.4603H20.7951C24.3396 38.4603 27.6701 37.0839 30.2062 34.5758C32.7729 32.0371 34.209 28.6419 34.209 25.0327C34.209 21.4541 32.834 18.0589 30.2979 15.5202C27.7007 12.9509 24.3396 11.5439 20.734 11.5439ZM29.0757 16.6213C31.3368 18.8848 32.559 21.8517 32.5896 25.0021C32.5896 28.1526 31.3673 31.1195 29.1062 33.3829C26.8451 35.6463 23.8812 36.8698 20.734 36.9004H20.7034C17.5868 36.9004 14.6229 35.6769 12.3618 33.4135C10.1007 31.1501 8.87845 28.1831 8.84789 25.0327C8.84789 21.8823 10.0701 18.9154 12.3312 16.6519C14.5923 14.3885 17.5562 13.165 20.7034 13.1345H20.734C23.8812 13.1345 26.8451 14.3579 29.0757 16.6213Z" fill="#0C8890"></path><path d="M16.5775 43.507C12.7581 42.5282 9.61083 40.8153 7.2275 38.4295C4.81361 36.0132 3.13306 32.8933 2.30806 29.1312C1.48306 25.3996 1.63584 21.8821 2.76639 18.6705C3.89695 15.5201 6.00528 12.6449 8.99972 10.1674C11.5358 8.05689 14.5303 6.80283 17.9219 6.43579L17.3108 6.92517C16.7303 7.38398 16.1497 7.87336 15.5386 8.33217C15.2025 8.60745 15.0497 8.82155 15.0192 9.06625C14.9886 9.24977 15.0497 9.43329 15.2331 9.61681C15.6914 10.1674 16.1497 9.92268 16.5775 9.58622C17.5858 8.79097 18.6553 7.96512 19.6636 7.16987L20.8858 6.22168C21.3747 5.85464 21.5581 5.57936 21.5886 5.30408C21.5886 5.0288 21.4053 4.75351 20.9469 4.38647C19.9386 3.53004 18.8692 2.67361 17.8608 1.81718L17.6469 1.66425C17.3414 1.41956 17.0358 1.17486 16.7303 0.899582C16.4553 0.685474 16.1497 0.471367 15.8442 0.501954C15.6608 0.53254 15.4775 0.624301 15.3247 0.838408C14.8664 1.41956 15.2636 1.81718 15.7219 2.18423C16.3942 2.73479 17.0664 3.28535 17.7386 3.8665C18.0136 4.11119 18.2886 4.3253 18.5942 4.56999C18.3497 4.60058 18.1053 4.63117 17.8914 4.69234C17.3719 4.75351 16.9442 4.84527 16.5164 4.93703C11.2608 6.09933 6.73861 9.09683 3.77473 13.4096C3.68306 13.5625 3.59139 13.6848 3.49972 13.8378C0.658056 18.2117 -0.380833 23.5644 0.596944 28.9171C2.06361 36.839 8.3275 43.354 16.2108 45.128C16.4247 45.1892 16.6386 45.2198 16.8219 45.2198C16.9747 45.2198 17.1275 45.1892 17.2803 45.0975C17.4331 45.0057 17.5553 44.8222 17.5858 44.5775C17.6775 43.8434 17.2192 43.6905 16.5775 43.507Z" fill="#0C8890"></path><path d="M24.7972 45.1591C35.6139 43.0486 42.7333 32.7715 40.9917 21.7602C40.0139 15.6429 36.8056 10.8407 31.3972 7.4762C29.5333 6.3139 27.425 5.45748 25.1639 4.96809C24.8278 4.90691 24.5528 4.9375 24.3694 5.05985C24.2167 5.18219 24.125 5.33513 24.0944 5.57982C24.0639 5.79393 24.3083 6.03862 24.5528 6.28332C24.6139 6.34449 24.675 6.40566 24.7361 6.46684C24.7972 6.5586 24.95 6.5586 25.0722 6.58919C25.1028 6.58919 25.1333 6.58919 25.1639 6.61977C29.3194 7.62914 32.8944 9.92314 35.5222 13.1653C38.1194 16.4381 39.5861 20.445 39.7083 24.7577C39.9528 33.1997 34.3 40.8158 25.9583 43.2321C25.4083 43.3851 24.8583 43.5074 24.3083 43.5992C24.0944 43.6298 23.8806 43.6909 23.6667 43.7215C24.3694 42.9263 25.1333 42.3145 25.8667 41.6722L25.9889 41.5804C26.2639 41.3663 26.3861 41.1216 26.4167 40.9075C26.4472 40.724 26.3556 40.5099 26.2028 40.3264C25.8667 39.9593 25.4389 39.9288 25.0111 40.2958L23.5139 41.5193C22.5056 42.3757 21.4361 43.2321 20.3972 44.1192C20.1222 44.3333 20 44.5779 20 44.8226C20 45.0673 20.1222 45.2814 20.3972 45.4956C21.8028 46.6273 23.2694 47.759 24.675 48.8601L25.1639 49.2577C25.3472 49.4107 25.5611 49.5024 25.7444 49.4718C25.775 49.4718 25.8056 49.4718 25.8361 49.4718C26.0194 49.4412 26.2028 49.3189 26.3556 49.1354C26.6611 48.7378 26.5694 48.3401 26.0806 47.9731C25.3778 47.4225 24.6444 46.8414 23.9111 46.2602L22.9944 45.5261L23.3306 45.465C23.8194 45.3426 24.3083 45.2509 24.7972 45.1591Z" fill="#0C8890"></path><path d="M19.9684 16.5605C20.0601 17.2945 19.8462 17.631 19.0518 17.9369C17.5546 18.4874 16.5157 20.1697 16.5768 21.8214C16.6684 23.7178 17.4934 24.8189 19.3268 25.4306C19.724 25.553 20.1518 25.6753 20.549 25.7671H20.5796C20.9768 25.8588 21.374 25.9812 21.7407 26.1035C22.7796 26.44 23.299 27.1129 23.4823 28.3669C23.3601 28.5505 23.2684 28.7646 23.1768 28.9481C22.9629 29.3763 22.7184 29.8351 22.3823 30.2022C21.7712 30.8445 20.9157 31.028 19.9379 30.6915C18.9296 30.3245 18.349 29.5904 18.2268 28.4587C18.1962 28.1834 18.1046 27.7858 17.8296 27.6329C17.6768 27.5411 17.4934 27.5411 17.249 27.6023C16.9434 27.7246 16.6073 28.3058 16.6379 28.6728C16.7907 30.3245 17.6462 31.5174 19.1129 32.0985C19.8157 32.3738 20.0296 32.6797 19.9684 33.3526C19.9073 33.7808 19.9684 34.0867 20.1518 34.2702C20.274 34.4231 20.4879 34.4843 20.7323 34.4843H20.7629C21.0073 34.4843 21.2212 34.3925 21.3434 34.2396C21.5573 33.9949 21.5573 33.6279 21.4962 33.3832C21.374 32.5879 21.7101 32.3126 22.3823 32.0679C23.849 31.5174 24.949 29.8657 24.8879 28.1834C24.8268 26.2565 23.9712 25.1248 22.1073 24.513C21.4046 24.2683 20.7018 24.1154 19.999 23.9319H19.9379C18.8684 23.6566 18.2879 23.0143 18.1962 22.0049C18.1046 20.9344 18.5018 20.0779 19.3879 19.5274C20.0907 19.0686 20.9157 18.9768 21.649 19.3133C22.474 19.6803 23.0851 20.5367 23.2684 21.5767C23.3907 22.2496 23.6657 22.4943 24.1851 22.4331C24.5518 22.3719 24.9796 22.1578 24.8573 21.3626C24.6434 19.6497 23.8184 18.4874 22.3823 17.9369C21.7101 17.6616 21.374 17.3863 21.4962 16.6216C21.5268 16.3464 21.5268 16.0099 21.3434 15.7652C21.2212 15.6123 21.0073 15.5205 20.7629 15.5205C20.4879 15.5205 20.274 15.5817 20.1518 15.7346C19.9379 15.9487 19.9379 16.3158 19.9684 16.5605Z" fill="#0C8890"></path></svg>