<svg xmlns="http://www.w3.org/2000/svg" width="65" height="79" viewBox="0 0 65 79" fill="none"><path d="M10.7148 69.9482H17.2292V71.5462H12.5244V73.2168H17.0121V74.7422H12.5244V76.776H17.374V78.3013H10.7148V69.9482Z" fill="white"></path><path d="M21.4239 70.0205H24.9707C27.4316 70.0205 28.7345 71.4732 28.7345 73.2165C28.7345 74.306 28.1555 75.3229 27.1421 75.8314L28.8793 78.301H26.7802L25.4773 76.3398C25.2602 76.4124 24.9707 76.4124 24.7535 76.4124H23.1611V78.301H21.3516V70.0205H21.4239ZM25.043 74.8871C25.984 74.8871 26.7078 74.1607 26.7078 73.2165C26.7078 72.2722 25.984 71.5459 25.043 71.5459H23.2335V74.8871H25.043Z" fill="white"></path><path d="M31.9199 74.1611C31.8475 71.6915 33.8018 69.7304 36.1905 69.6577C38.6514 69.5851 40.6057 71.5462 40.6781 73.9432C40.7505 76.3402 38.7962 78.374 36.4076 78.4466H36.3352C34.019 78.5193 31.9923 76.7034 31.9199 74.3064C31.9199 74.3064 31.9199 74.2338 31.9199 74.1611ZM38.8686 74.1611C38.7962 72.781 37.5657 71.6915 36.1905 71.7642C34.8152 71.8368 33.7295 73.0716 33.8018 74.4517C33.8742 75.8317 34.96 76.8486 36.3352 76.8486C37.7105 76.8486 38.8686 75.6865 38.8686 74.3064C38.8686 74.2338 38.8686 74.1611 38.8686 74.1611Z" fill="white"></path><path d="M43.1406 70.0205H44.9502L46.7597 74.8871C46.9769 75.3229 47.2664 76.2672 47.2664 76.3398C47.2664 76.2672 47.5559 75.3229 47.7731 74.8871L49.655 70.0205H51.4645L48.2074 78.3736H46.3254L43.1406 70.0205Z" fill="white"></path><path d="M56.0957 70.0205H57.8328L61.4519 78.3736H59.6424L59.0633 77.0662H54.8652L54.2861 78.3736H52.4766L56.0957 70.0205ZM58.4843 75.6135L57.5433 73.2165C57.3261 72.5628 56.9642 71.7638 56.9642 71.6911C56.9642 71.6185 56.6023 72.5628 56.3852 73.2165L55.4442 75.6135H58.4843Z" fill="white"></path><path d="M0 76.9935L3.76386 72.4175C3.981 72.1269 4.27053 71.8364 4.56006 71.5459H0.217146V70.0205H6.87628V71.4006L3.25718 75.8314C2.82289 76.4124 2.3886 76.8483 2.3886 76.8483H7.02104V78.3736H0V76.9935Z" fill="white"></path><mask id="mask0_2011_7783" style="mask-type:alpha" maskUnits="userSpaceOnUse" x="0" y="0" width="65" height="67"><path d="M65.0003 0H1.37663V32.8313H13.2473L0.363281 66.2437H61.3812L61.5984 32.9766H50.5239L65.0003 0ZM22.8017 53.823L26.7103 32.9766H14.1158L40.3181 11.6217L37.0609 32.9766H49.6554L22.8017 53.823Z" fill="white"></path></mask><g mask="url(#mask0_2011_7783)"><path d="M-33.2969 33.9937L31.6297 -31.9595L97.3524 33.1947L32.4259 99.1479L-33.2969 33.9937Z" fill="white"></path></g></svg>