<svg xmlns="http://www.w3.org/2000/svg" width="29" height="26" viewBox="0 0 29 26" fill="none"><path d="M14.4484 25.9213C10.2714 25.9213 6.09446 25.9213 1.9175 25.9213C1.75838 25.9213 1.63904 25.9213 1.47992 25.9213C1.16167 25.9213 0.962769 25.7698 0.922988 25.4291C0.883208 25.0884 1.08211 24.8613 1.44014 24.8613C1.9175 24.8613 1.95728 24.6341 1.95728 24.2555C1.95728 19.4099 1.95728 14.5642 1.95728 9.71856C1.95728 8.88572 2.1164 8.73429 2.99158 8.73429C3.42916 8.73429 3.82697 8.73429 4.26455 8.73429C4.54302 8.73429 4.66236 8.62072 4.66236 8.35572C4.66236 7.71216 4.66236 7.03074 4.66236 6.38718C4.66236 6.16004 4.70214 5.9329 4.94082 5.81933C5.1795 5.70576 5.41819 5.74361 5.65687 5.89503C6.25358 6.2736 6.81051 6.65218 7.40721 6.99289C7.48677 7.0686 7.60612 7.14431 7.68568 7.10645C7.8448 7.0686 7.76524 6.87931 7.76524 6.76574C7.76524 5.21362 7.76524 3.62364 7.76524 2.07151C7.76524 1.39009 7.8448 1.27652 8.48129 1.08723C11.1466 0.21653 13.8914 -0.048467 16.7159 0.3301C17.9888 0.481527 19.222 0.746527 20.4552 1.12509C21.0122 1.27652 21.1315 1.42794 21.1315 1.99579C21.1315 3.54792 21.1315 5.1379 21.1315 6.69003C21.1315 6.84145 21.0519 7.03074 21.2111 7.10645C21.3702 7.18217 21.4895 7.03074 21.6089 6.95503C22.1658 6.61432 22.7227 6.2736 23.2796 5.93289C23.5183 5.78146 23.7172 5.70576 23.9957 5.81933C24.2742 5.9329 24.3139 6.16004 24.3139 6.42504C24.3139 7.0686 24.3139 7.71216 24.3139 8.35572C24.3139 8.65857 24.3935 8.77215 24.7117 8.77215C25.1891 8.77215 25.6267 8.77215 26.1041 8.77215C26.7803 8.77215 26.9792 8.96143 26.9792 9.605C26.9792 12.3685 26.9792 15.1321 26.9792 17.8956C26.9792 20.0156 26.9792 22.1734 26.9792 24.2934C26.9792 24.6341 27.019 24.8613 27.4964 24.8613C27.8146 24.8613 28.0533 25.0884 28.0135 25.4291C27.9737 25.7698 27.7748 25.9213 27.4168 25.9213C27.019 25.9213 26.6212 25.9213 26.1836 25.9213C22.2453 25.9213 18.3469 25.9213 14.4484 25.9213ZM14.4484 18.2742C15.6816 18.2742 16.9545 18.2742 18.1877 18.2742C18.7049 18.2742 18.9436 18.4635 18.9833 18.842C18.9833 19.1827 18.7844 19.372 18.2673 19.4099C18.0684 19.4477 17.9491 19.4856 17.9491 19.7127C17.9491 21.3027 17.9491 22.9306 17.9491 24.5205C17.9491 24.7477 18.0684 24.8234 18.2673 24.8234C18.6651 24.8234 19.0629 24.8234 19.4607 24.8234C19.8187 24.8613 19.9381 24.7098 19.9381 24.3691C19.9381 22.1356 19.9381 19.902 19.9381 17.6685C19.9381 17.2899 19.779 17.1763 19.4209 17.0628C17.9491 16.6842 16.4772 16.4192 14.9257 16.3814C13.0163 16.3056 11.1068 16.5328 9.2769 17.1006C9.07799 17.1763 8.95865 17.2521 8.95865 17.4792C8.95865 19.7885 8.95865 22.1356 8.95865 24.4448C8.95865 24.7098 9.078 24.7855 9.35646 24.7855C9.75426 24.7855 10.1123 24.7477 10.5101 24.7855C10.8681 24.8234 10.9875 24.672 10.9875 24.3313C10.9875 22.8549 10.9875 21.3784 10.9875 19.8642C10.9875 19.5235 10.9079 19.3342 10.5101 19.3342C10.2316 19.3342 10.0327 19.1828 9.95317 18.9178C9.91339 18.6528 9.99295 18.4635 10.2316 18.3499C10.3908 18.2363 10.5897 18.2363 10.7886 18.2363C12.0218 18.2742 13.2152 18.2742 14.4484 18.2742ZM5.77621 16.0406C5.77621 16.9113 5.77621 17.8199 5.77621 18.6906C5.77621 20.5835 5.77621 22.4763 5.77621 24.3691C5.77621 24.7098 5.89555 24.8613 6.25358 24.8234C6.57182 24.7855 6.92985 24.7855 7.24809 24.8234C7.60612 24.8613 7.76524 24.7477 7.76524 24.3691C7.72546 23.3848 7.76524 22.4006 7.76524 21.4542C7.76524 17.3278 7.76524 13.2392 7.76524 9.11285C7.76524 8.73429 7.68568 8.4693 7.32765 8.28001C6.92985 8.05287 6.57182 7.82573 6.2138 7.56074C6.09446 7.48502 5.97511 7.33359 5.85577 7.4093C5.73643 7.48501 5.77621 7.63644 5.77621 7.78787C5.77621 10.5136 5.77621 13.2771 5.77621 16.0406ZM23.1205 16.0785C23.1205 14.7914 23.1205 13.5042 23.1205 12.2171C23.1205 10.7028 23.1205 9.18857 23.1205 7.6743C23.1205 7.56073 23.1603 7.44717 23.041 7.37145C22.9614 7.3336 22.8818 7.44716 22.8023 7.48502C22.4045 7.75002 22.0067 8.01501 21.6089 8.24215C21.2508 8.43144 21.1315 8.69644 21.1315 9.07501C21.1315 14.11 21.1315 19.1828 21.1315 24.2177C21.1315 24.2934 21.1315 24.3691 21.1315 24.4448C21.1315 24.672 21.2111 24.7855 21.4895 24.7855C21.8078 24.7855 22.126 24.7855 22.4045 24.7855C23.1205 24.7855 23.1205 24.7855 23.1205 24.1041C23.1205 21.4542 23.1205 18.7663 23.1205 16.0785ZM4.66236 17.3656C4.66236 15.1321 4.66236 12.8985 4.66236 10.665C4.66236 9.75642 4.7817 9.86999 3.78719 9.86999C3.1507 9.86999 3.1507 9.86999 3.1507 10.4757C3.1507 14.9806 3.1507 19.4477 3.1507 23.9527C3.1507 24.9748 3.03136 24.8234 4.14521 24.8613C4.54302 24.8613 4.66236 24.7477 4.66236 24.3691C4.62258 22.022 4.66236 19.6749 4.66236 17.3656ZM24.2742 17.3656C24.2742 19.5992 24.2742 21.7949 24.2742 24.0284C24.2742 24.9748 24.1548 24.8613 25.1493 24.8613C25.746 24.8613 25.746 24.8613 25.746 24.2934C25.746 19.7885 25.746 15.2457 25.746 10.7407C25.746 9.79428 25.8256 9.90785 24.8311 9.86999C24.2742 9.86999 24.2742 9.86999 24.2742 10.4378C24.2742 12.7092 24.2742 15.0185 24.2742 17.3656ZM14.2495 7.29574C12.8571 7.37145 11.3853 7.48502 9.95317 7.86359C8.75975 8.2043 8.99843 8.01502 8.99843 9.03715C8.99843 9.94571 8.99843 9.98356 9.91339 9.75642C11.425 9.37786 13.0163 9.18857 14.5677 9.22643C16.2783 9.26429 17.9491 9.49143 19.5801 9.94571C19.8585 10.0214 19.9381 9.90785 19.9381 9.68071C19.9381 9.30214 19.9381 8.96143 19.9381 8.58286C19.9381 8.28001 19.8585 8.12858 19.5403 8.05287C17.8297 7.59859 16.0794 7.37145 14.2495 7.29574ZM14.4881 1.27652C12.6582 1.27652 11.0272 1.54151 9.43602 1.95793C9.11777 2.03365 8.95865 2.18508 8.99843 2.52579C9.03821 2.8665 8.99843 3.20721 8.99843 3.58578C8.99843 3.88863 9.078 3.96434 9.39624 3.85077C10.9477 3.39649 12.5787 3.16935 14.2097 3.16935C15.9998 3.16935 17.7501 3.39649 19.5005 3.85077C19.9381 3.96434 19.9779 3.96434 19.9779 3.51006C19.9779 3.20721 19.9381 2.8665 19.9779 2.56364C20.0176 2.22293 19.8585 2.10936 19.5403 1.99579C17.7899 1.54151 16.0794 1.27652 14.4881 1.27652ZM14.2097 13.3907C12.7378 13.3528 11.1864 13.58 9.63492 13.9964C8.99843 14.1857 8.99843 14.1857 8.99843 14.8292C8.99843 15.0564 8.99843 15.3214 8.99843 15.5485C8.99843 16.0028 9.03821 16.0028 9.4758 15.8892C11.5444 15.3592 13.613 15.1321 15.7611 15.3214C17.0341 15.4349 18.3071 15.6242 19.5801 15.9649C19.8585 16.0406 19.9779 15.9649 19.9779 15.6999C19.9779 15.3214 19.9779 14.9806 19.9779 14.6021C19.9779 14.2992 19.8983 14.1478 19.5403 14.0721C17.8297 13.6178 16.1191 13.3907 14.2097 13.3907ZM14.2097 4.34292C12.698 4.30506 11.1864 4.53219 9.6747 4.94861C8.99843 5.1379 8.99843 5.1379 8.99843 5.81933C8.99843 6.04647 8.99843 6.2736 8.99843 6.50074C8.99843 6.99288 9.03821 6.99288 9.55536 6.87931C11.6637 6.31146 13.8119 6.12217 15.96 6.31146C17.1534 6.42503 18.3469 6.61431 19.5005 6.91717C19.8187 6.99288 19.9779 6.99289 19.9381 6.61432C19.8983 6.27361 19.8983 5.93289 19.9381 5.55432C19.9381 5.25147 19.8187 5.10005 19.5005 5.02433C17.7899 4.57005 16.0794 4.30506 14.2097 4.34292ZM19.9381 12.1035C19.9381 11.99 19.9381 11.8764 19.9381 11.725C20.0176 11.3086 19.8187 11.1193 19.3811 11.0057C16.1987 10.1728 12.9765 10.0593 9.79404 10.8921C8.99843 11.1193 8.99843 11.1193 8.99843 11.9143C8.99843 12.1414 8.99843 12.3307 8.99843 12.5578C8.95865 12.9364 9.11777 12.9743 9.4758 12.8607C10.5499 12.52 11.7035 12.3685 12.8174 12.255C14.9257 12.0657 16.9943 12.2928 19.0231 12.7471C19.9381 13.0121 19.9381 13.0121 19.9381 12.1035ZM12.1411 22.0977C12.1411 22.8927 12.1411 23.6877 12.1411 24.4448C12.1411 24.7098 12.2207 24.8234 12.5389 24.8234C12.8174 24.8234 13.1356 24.7855 13.4141 24.8234C13.7721 24.8613 13.8914 24.7098 13.8914 24.3691C13.8914 23.1199 13.8914 21.8706 13.8914 20.6213C13.8914 19.4099 13.8914 19.4099 12.6185 19.4099C12.2604 19.4099 12.1013 19.4856 12.1411 19.8642C12.1411 20.5835 12.1411 21.3406 12.1411 22.0977ZM16.7954 22.1356C16.7954 21.3784 16.7954 20.5835 16.7954 19.8263C16.7954 19.5235 16.6761 19.4099 16.3578 19.4099C16.0794 19.4099 15.7611 19.4099 15.4827 19.4099C15.1644 19.4099 15.0451 19.5235 15.0451 19.7885C15.0451 21.3406 15.0451 22.8927 15.0451 24.4448C15.0451 24.7098 15.1246 24.8613 15.4429 24.8234C15.7611 24.8234 16.0794 24.8234 16.3976 24.8234C16.6761 24.8234 16.7954 24.7477 16.7954 24.4448C16.7954 23.6877 16.7954 22.8927 16.7954 22.1356Z" fill="#00828C"></path></svg>