<svg xmlns="http://www.w3.org/2000/svg" width="26" height="26" viewBox="0 0 26 26" fill="none"><g clip-path="url(#clip0_2793_8793)"><path d="M0.00753403 18.9687C0.00753403 17.9362 0.436975 17.3785 1.44654 17.1072C1.59722 17.0696 1.63489 17.0319 1.63489 16.9188C1.63489 16.7832 1.59722 16.7154 1.49174 16.6852C1.47668 16.6777 1.45407 16.6777 1.439 16.6701C1.40133 16.6626 1.3712 16.6551 1.33353 16.64C0.421907 16.3536 0.0150681 15.7959 0.00753403 14.8464C0.00753403 13.7159 0.00753403 12.5177 0.00753403 11.1762C0.00753403 10.1814 0.399303 9.65391 1.34859 9.36L1.38626 9.35246C1.55201 9.29971 1.63489 9.26957 1.64242 9.1113C1.64996 8.96058 1.58968 8.93797 1.42393 8.90029C1.40133 8.89275 1.37873 8.89275 1.35613 8.88522C0.534918 8.68174 0.01507 8.02609 0.01507 7.18203C0.00753593 5.78783 0.00753593 4.5142 0.01507 3.27072C0.022604 2.44928 0.504782 1.8313 1.30339 1.62029C1.55202 1.55246 1.67256 1.45449 1.75543 1.22087C2.04926 0.376812 2.58418 0 3.4958 0C9.83193 0 16.1681 0 22.5042 0C23.4158 0 23.9809 0.39942 24.2747 1.25101C24.3425 1.45449 24.448 1.54493 24.6589 1.60522C25.5329 1.83884 25.9925 2.44174 26 3.34609C26 4.34841 26 5.37333 26 6.36058V6.97101C26 8.07884 25.6158 8.58377 24.5384 8.90029C24.4103 8.93797 24.3726 8.97565 24.3726 9.06609C24.3651 9.21681 24.4028 9.2771 24.5007 9.31478C24.5309 9.32232 24.561 9.32985 24.5911 9.34493C24.6213 9.35246 24.6589 9.36 24.6891 9.37507C25.5781 9.64638 25.9925 10.2116 26 11.131C26 11.6284 26 12.1258 26 12.6307C26 13.3919 26 14.1832 26 14.9594C26 15.4493 25.8343 15.8562 25.4802 16.2029C25.2617 16.4214 24.9678 16.5646 24.5911 16.6551C24.4254 16.6928 24.3651 16.7606 24.3651 16.9113C24.3651 17.0394 24.4254 17.0696 24.5911 17.1072C25.5178 17.3409 25.9925 17.9362 26 18.8858C26 20.0614 26 21.2823 26 22.6313C26 23.5733 25.5555 24.1536 24.6514 24.4023C24.448 24.4626 24.35 24.5455 24.2898 24.7264C23.9733 25.6307 23.4384 26 22.459 26C21.0953 26 19.7317 26 18.368 26C17.3358 26 16.3037 26 15.264 26H13.0339H10.3216C8.04636 26 5.76355 26 3.48827 26C2.60678 26 2.0568 25.6232 1.76297 24.8017C1.67256 24.553 1.55955 24.4475 1.33353 24.3872C0.489714 24.1687 0.022604 23.5658 0.01507 22.6765C0.00753593 21.4858 0.01507 20.2649 0.01507 19.0968L0.00753403 18.9687ZM19.5132 23.4603C19.7919 23.4904 19.9502 23.6562 19.9652 23.92C19.9803 24.2064 19.8145 24.3948 19.5283 24.44C19.4002 24.4626 19.2646 24.4551 19.144 24.4551C19.1063 24.4551 19.0762 24.4551 19.0385 24.4551H16.0325C11.8285 24.4551 7.48131 24.4551 3.20951 24.4626C3.1643 24.4626 3.11156 24.4551 3.05129 24.4475C2.84787 24.4174 2.77253 24.4249 2.75746 24.5229C2.71979 24.7641 3.00609 24.8997 3.1869 24.96C3.29992 24.9977 3.44306 24.9977 3.57114 24.9977H3.60128C6.306 24.9977 9.01826 24.9977 11.723 24.9977C15.2866 24.9977 18.8502 24.9977 22.4138 24.9977C22.7679 24.9977 23.0241 24.9449 23.2049 24.6887C23.2953 24.553 23.2802 24.5078 23.2802 24.5003C23.2651 24.4777 23.2124 24.4551 23.0994 24.4551H22.8658C22.5795 24.4551 22.2932 24.4551 22.0145 24.4551C21.8111 24.4551 21.5775 24.44 21.4344 24.2968C21.3515 24.2139 21.3063 24.0933 21.3138 23.9351C21.3214 23.4678 21.7282 23.4452 21.9693 23.4452C21.9768 23.4452 21.9919 23.4452 21.9994 23.4452H22.2028C22.8206 23.4452 23.4686 23.4528 24.0939 23.4452C24.772 23.4377 25.013 23.1965 25.0206 22.5107C25.0206 21.3878 25.0206 20.2423 25.0206 19.1345V19.0893C25.0206 18.2829 24.8247 18.087 24.0261 18.087C21.3364 18.087 18.6468 18.087 15.9646 18.087H13.0339H10.4045C7.63199 18.087 4.85193 18.087 2.0794 18.087C1.20545 18.087 1.02463 18.2678 1.02463 19.1571C1.02463 20.2197 1.02463 21.2823 1.02463 22.3374C1.02463 23.2643 1.21298 23.4528 2.1246 23.4528C5.43958 23.4528 8.75456 23.4528 12.0695 23.4528H19.0837H19.1742C19.2721 23.4528 19.3926 23.4528 19.5132 23.4603ZM20.131 10.3397H2.13214C1.13011 10.3397 1.00203 10.4678 1.00203 11.4852V12.3594C1.00203 13.1583 1.00203 13.9797 1.00203 14.7936C1.00203 15.4417 1.22805 15.6603 1.87598 15.6678C2.44103 15.6678 3.00609 15.6678 3.56361 15.6678C3.92524 15.6678 4.29441 15.6678 4.65604 15.6678C4.79919 15.6678 4.95741 15.6678 5.10809 15.6904C5.52999 15.7432 5.61287 15.9919 5.61287 16.1954C5.61287 16.5119 5.40945 16.6928 5.06288 16.7003C4.61837 16.7078 4.17386 16.7078 3.73689 16.7078C3.53347 16.7078 3.33005 16.7078 3.12663 16.7078H3.10403C2.99102 16.7078 2.87801 16.7078 2.77253 16.7154C2.68212 16.7229 2.62938 16.7606 2.62938 16.9188C2.62938 17.047 2.68212 17.0771 2.77253 17.0771C2.87047 17.0771 2.96841 17.0846 3.08896 17.0846C9.69632 17.0846 16.2961 17.0846 22.9035 17.0846C23.0241 17.0846 23.1295 17.0846 23.2199 17.0771C23.3028 17.0771 23.3555 17.047 23.3555 16.9113C23.3555 16.7455 23.3028 16.7154 23.2124 16.7078C23.0693 16.7003 22.9186 16.7003 22.7754 16.7003H18.2927C14.9023 16.7003 11.5045 16.7003 8.11417 16.7003H8.08403C7.91829 16.7003 7.745 16.7003 7.57925 16.6701C7.31556 16.6174 7.17241 16.429 7.17995 16.1577C7.18748 15.909 7.33816 15.7357 7.58679 15.7055C7.77514 15.6754 7.97856 15.6678 8.19704 15.6678C10.7812 15.6678 13.3654 15.6678 15.9571 15.6678C18.6091 15.6678 21.2611 15.6678 23.9055 15.6678C23.9432 15.6678 23.9733 15.6678 24.011 15.6678C24.1843 15.6678 24.3651 15.6754 24.5233 15.6226C24.8247 15.5246 24.9829 15.2986 24.9829 14.9594C24.9829 14.658 24.9829 14.3565 24.9829 14.0551C24.9829 13.0678 24.9904 12.0504 24.9754 11.0557C24.9678 10.5733 24.7041 10.3548 24.1391 10.3472C22.8131 10.3322 21.4494 10.3397 20.131 10.3397ZM2.44103 7.91304C2.5239 7.91304 2.60678 7.91304 2.68966 7.91304H7.38337C11.1353 7.91304 14.8873 7.91304 18.6392 7.91304H18.6844C18.8427 7.91304 19.0084 7.91304 19.1742 7.94319C19.4303 7.99594 19.5735 8.19188 19.5509 8.47072C19.5283 8.72696 19.3776 8.88522 19.1214 8.90029C19.0009 8.90783 18.8803 8.90783 18.7598 8.90783H18.6769H3.20951C3.1643 8.90783 3.1191 8.90783 3.07389 8.90783C2.99855 8.90783 2.92321 8.90783 2.84787 8.90783C2.68212 8.90783 2.63692 8.94551 2.62938 9.07362C2.62938 9.14899 2.64445 9.20928 2.67459 9.23942C2.70472 9.26956 2.765 9.28464 2.84787 9.28464C2.90814 9.28464 2.96842 9.28464 3.02869 9.28464C3.07389 9.28464 3.12663 9.28464 3.17183 9.28464H5.61287C11.2559 9.28464 17.0872 9.28464 22.8282 9.2771C22.8809 9.2771 22.9336 9.28464 22.9939 9.29217C23.1069 9.30725 23.2425 9.32985 23.3028 9.26956C23.3405 9.23188 23.3555 9.16406 23.3555 9.06609C23.3555 8.98319 23.3329 8.93043 23.3028 8.90029C23.2802 8.87768 23.2425 8.87014 23.1973 8.87014C23.1521 8.87014 23.0919 8.87768 23.0391 8.88522C22.9638 8.89275 22.8884 8.90783 22.8206 8.90029C22.6021 8.87768 22.3686 8.87768 22.1426 8.88522C22.0597 8.88522 21.9844 8.89275 21.9015 8.89275C21.7056 8.89275 21.5624 8.84754 21.472 8.7571C21.3892 8.6742 21.344 8.56116 21.344 8.41043C21.344 8.09391 21.5398 7.91304 21.8939 7.90551C22.346 7.89797 22.8056 7.89797 23.2501 7.89797C23.4987 7.89797 23.7398 7.89797 23.9884 7.89797C24.8021 7.89797 24.998 7.70203 24.998 6.91072C24.998 5.65971 24.998 4.55188 24.998 3.52696C24.998 2.75826 24.772 2.53971 24.011 2.53971C21.2988 2.53971 18.579 2.53971 15.8667 2.53971H12.9736C9.37236 2.53971 5.77861 2.53971 2.17734 2.53971H2.09447C1.95132 2.53971 1.80817 2.53971 1.66503 2.55478C1.22805 2.61507 1.00203 2.86377 1.00203 3.2858C0.986961 4.61971 0.994495 5.93855 1.00203 7.18957C1.00956 7.61159 1.25065 7.86029 1.68763 7.89043C1.94378 7.92058 2.19994 7.92058 2.44103 7.91304ZM2.73486 1.4771C2.75746 1.54493 2.79513 1.55246 2.92321 1.54493C2.95335 1.54493 2.98348 1.53739 3.00608 1.53739C4.02318 1.53739 5.06288 1.53739 6.05737 1.53739H22.7754H22.8508C22.9487 1.53739 23.0391 1.53739 23.1371 1.52986C23.235 1.52232 23.2576 1.49971 23.2651 1.49217C23.2727 1.4771 23.2651 1.42435 23.2199 1.34899C23.0994 1.14551 22.9336 1.03246 22.7302 1.00986C22.5946 0.994783 22.4439 0.994783 22.3008 0.994783C17.4112 0.994783 12.5291 0.994783 7.63952 0.994783H3.69168H3.61634C3.33758 0.994783 3.08143 0.994783 2.87801 1.2058C2.86294 1.22087 2.85541 1.22841 2.84034 1.24348C2.765 1.33391 2.71226 1.40174 2.73486 1.4771Z" fill="#00828C"></path><path d="M10.6602 22.3453H10.6527C10.2383 22.3453 9.82393 22.1645 9.51503 21.848C9.21367 21.539 9.04039 21.1245 9.04792 20.71C9.05545 20.2955 9.23627 19.881 9.5527 19.5795C9.8616 19.2856 10.2609 19.1123 10.6602 19.1123C10.6677 19.1123 10.6753 19.1123 10.6903 19.1123C11.1047 19.1198 11.5191 19.3082 11.8205 19.6248C12.1218 19.9413 12.2876 20.3558 12.28 20.7703C12.2499 21.6294 11.5116 22.3453 10.6602 22.3453ZM11.2629 20.7401C11.2629 20.5894 11.2027 20.4311 11.0821 20.3181C10.9691 20.2051 10.8109 20.1372 10.6527 20.1372C10.6451 20.1372 10.6451 20.1372 10.6376 20.1372C10.3061 20.1448 10.0499 20.4085 10.0575 20.7401C10.0575 21.0491 10.3513 21.3355 10.6527 21.343C10.6527 21.343 10.6527 21.343 10.6602 21.343C10.954 21.3355 11.2554 21.0416 11.2629 20.7401Z" fill="#00828C"></path><path d="M6.17839 22.3453C6.17086 22.3453 6.17086 22.3453 6.16333 22.3453C5.75649 22.3453 5.36472 22.1871 5.07842 21.9007C4.76953 21.5917 4.59624 21.1697 4.59624 20.7175C4.59624 20.2729 4.76199 19.8659 5.07089 19.5645C5.37225 19.2706 5.77156 19.1123 6.201 19.1123C7.05234 19.1198 7.77561 19.8584 7.78315 20.7175C7.79068 21.5993 7.05234 22.3378 6.17839 22.3453ZM5.59074 20.7326C5.59074 20.8909 5.65855 21.0491 5.77909 21.1622C5.88457 21.2677 6.02771 21.3355 6.17086 21.3355C6.17086 21.3355 6.17086 21.3355 6.17839 21.3355C6.33661 21.3355 6.49482 21.2677 6.60784 21.1471C6.72085 21.0265 6.78865 20.8682 6.78112 20.71C6.77358 20.3859 6.50989 20.1297 6.17839 20.1297C5.86196 20.1372 5.59074 20.4161 5.59074 20.7326Z" fill="#00828C"></path><path d="M10.6602 3.65527C11.5191 3.65527 12.2574 4.37875 12.28 5.23035C12.2876 5.6373 12.1218 6.05933 11.8205 6.37585C11.5191 6.69237 11.1047 6.88078 10.6903 6.88832C10.6828 6.88832 10.6753 6.88832 10.6677 6.88832C10.2684 6.88832 9.8616 6.72252 9.56024 6.42107C9.24381 6.11209 9.06299 5.69759 9.05546 5.2831C9.04792 4.86861 9.2212 4.46165 9.5301 4.14513C9.82393 3.83614 10.2383 3.65527 10.6602 3.65527ZM10.2383 5.69759C10.3588 5.81064 10.5095 5.87093 10.6753 5.86339C10.9917 5.84832 11.2629 5.56948 11.2629 5.26049C11.2554 4.95904 10.9616 4.66513 10.6602 4.66513C10.3588 4.66513 10.065 4.95904 10.065 5.26049C10.0575 5.42629 10.1253 5.58455 10.2383 5.69759Z" fill="#00828C"></path><path d="M6.15515 3.65527C6.16269 3.65527 6.16268 3.65527 6.17022 3.65527C6.59212 3.65527 6.99143 3.82107 7.30033 4.12252C7.60922 4.43151 7.78251 4.83093 7.79004 5.25295C7.79004 5.67498 7.61676 6.09701 7.31539 6.406C7.0065 6.71498 6.60719 6.88832 6.19282 6.88832C5.31134 6.88832 4.61821 6.19498 4.61067 5.31324C4.5956 4.38629 5.27367 3.66281 6.15515 3.65527ZM6.17775 5.87093C6.18529 5.87093 6.18529 5.87093 6.19282 5.87093C6.49418 5.87093 6.77294 5.59962 6.78048 5.29064C6.78801 5.12484 6.72774 4.97411 6.61473 4.85353C6.50172 4.73295 6.35104 4.67266 6.18529 4.67266C5.86132 4.67266 5.60516 4.93643 5.60516 5.26803C5.59763 5.58455 5.86132 5.86339 6.17775 5.87093Z" fill="#00828C"></path><path d="M10.6612 14.6877C10.2392 14.6877 9.82487 14.5068 9.51598 14.1978C9.20708 13.8888 9.0338 13.4743 9.04133 13.0598C9.04886 12.6453 9.22968 12.2309 9.54611 11.9294C9.86254 11.6204 10.2769 11.4546 10.6838 11.4622C11.5426 11.4772 12.2659 12.2082 12.2734 13.0674C12.2734 13.4819 12.1002 13.8964 11.7913 14.2053C11.4899 14.5143 11.0755 14.6877 10.6612 14.6877ZM10.6536 12.4796C10.3297 12.4796 10.0735 12.7282 10.0584 13.0598C10.0509 13.3688 10.3146 13.6627 10.631 13.6853C10.7742 13.6929 10.9324 13.6326 11.0529 13.512C11.181 13.3914 11.2563 13.2256 11.2563 13.0824C11.2563 12.7659 10.9851 12.4946 10.6612 12.4871C10.6612 12.4796 10.6612 12.4796 10.6536 12.4796Z" fill="#00828C"></path><path d="M6.17803 14.6881H6.1705C5.75612 14.6881 5.37189 14.5299 5.08559 14.2435C4.7767 13.9345 4.60342 13.5125 4.61095 13.0603C4.61095 12.6232 4.78423 12.2087 5.08559 11.9073C5.38696 11.6133 5.78626 11.4551 6.2157 11.4551C7.06705 11.4702 7.79032 12.2087 7.79785 13.0678C7.79032 13.942 7.05198 14.6881 6.17803 14.6881ZM5.78626 12.6383C5.66572 12.7513 5.59791 12.902 5.59038 13.0603C5.58284 13.3844 5.84653 13.6707 6.15543 13.6783C6.16296 13.6783 6.16296 13.6783 6.1705 13.6783C6.47939 13.6783 6.75815 13.4145 6.77322 13.1055C6.78076 12.9397 6.72802 12.789 6.61501 12.6684C6.502 12.5478 6.35131 12.48 6.18557 12.4725C6.04242 12.4725 5.89927 12.5328 5.78626 12.6383Z" fill="#00828C"></path><path d="M18.2325 20.7168C18.24 20.3023 18.4208 19.8878 18.7373 19.5864C19.0537 19.2849 19.4605 19.1191 19.8749 19.1191C20.2893 19.1267 20.7037 19.3151 21.005 19.6316C21.3064 19.9481 21.4721 20.3626 21.4646 20.7771C21.442 21.6362 20.7037 22.3522 19.8523 22.3522H19.8448C19.4304 22.3522 19.016 22.1713 18.7071 21.8548C18.3982 21.5383 18.225 21.1238 18.2325 20.7168ZM19.2496 20.7319C19.2496 21.0409 19.5434 21.3273 19.8448 21.3348C19.8448 21.3348 19.8448 21.3348 19.8523 21.3348C20.1461 21.3348 20.4475 21.0333 20.455 20.7394C20.455 20.5887 20.3948 20.4304 20.2742 20.3174C20.1612 20.2044 20.003 20.1365 19.8448 20.1365C19.8372 20.1365 19.8372 20.1365 19.8297 20.1365C19.4982 20.1441 19.2421 20.4078 19.2496 20.7319Z" fill="#00828C"></path><path d="M15.362 22.3453C15.3545 22.3453 15.3545 22.3453 15.3469 22.3453C14.9401 22.3453 14.5483 22.1871 14.262 21.9007C13.9531 21.5917 13.7798 21.1697 13.7798 20.7175C13.7798 20.2729 13.9456 19.8659 14.2545 19.5645C14.5558 19.2706 14.9551 19.1123 15.3846 19.1123C16.2359 19.1198 16.9592 19.8584 16.9667 20.7175C16.9743 21.5993 16.2359 22.3378 15.362 22.3453ZM14.7819 20.7326C14.7819 20.8909 14.8497 21.0491 14.9702 21.1622C15.0832 21.2677 15.2188 21.3355 15.362 21.3355C15.5202 21.3355 15.6784 21.2677 15.7914 21.1471C15.9044 21.0265 15.9722 20.8682 15.9647 20.71C15.9572 20.3859 15.6935 20.1297 15.362 20.1297C15.0456 20.1372 14.7819 20.4161 14.7819 20.7326Z" fill="#00828C"></path><path d="M19.8448 3.65527C20.7037 3.65527 21.442 4.37875 21.4646 5.23035C21.4721 5.6373 21.3064 6.05933 21.005 6.37585C20.7037 6.69237 20.2893 6.88078 19.8749 6.88832C19.8674 6.88832 19.8598 6.88832 19.8523 6.88832C19.453 6.88832 19.0462 6.72252 18.7448 6.42107C18.4284 6.11209 18.2476 5.69759 18.24 5.2831C18.2325 4.86861 18.4058 4.46165 18.7147 4.14513C19.0085 3.83614 19.4229 3.65527 19.8448 3.65527ZM19.4304 5.69759C19.551 5.81064 19.7016 5.87093 19.8674 5.86339C20.1838 5.84832 20.455 5.56948 20.455 5.26049C20.4475 4.95904 20.1537 4.66513 19.8523 4.66513C19.5509 4.66513 19.2571 4.95904 19.2571 5.26049C19.2421 5.42629 19.3099 5.58455 19.4304 5.69759Z" fill="#00828C"></path><path d="M15.3397 3.65551C15.7616 3.64797 16.1685 3.82131 16.4849 4.12276C16.7938 4.43174 16.9671 4.83116 16.9746 5.25319C16.9746 5.67522 16.8013 6.09725 16.5 6.40623C16.1911 6.71522 15.7918 6.88855 15.3774 6.88855C14.4959 6.88855 13.8028 6.19522 13.7952 5.31348C13.7802 4.38652 14.4582 3.66305 15.3397 3.65551ZM15.7918 4.85377C15.6788 4.73319 15.5281 4.6729 15.3623 4.6729C15.0384 4.6729 14.7822 4.93667 14.7822 5.26826C14.7822 5.59232 15.0459 5.86363 15.3623 5.87116C15.3699 5.87116 15.3699 5.87116 15.3774 5.87116C15.6788 5.87116 15.9575 5.59986 15.965 5.29087C15.965 5.12507 15.9048 4.97435 15.7918 4.85377Z" fill="#00828C"></path><path d="M19.8447 14.6877C19.4228 14.6877 19.0085 14.5068 18.6996 14.1978C18.3907 13.8888 18.2174 13.4743 18.2249 13.0598C18.2325 12.6453 18.4133 12.2309 18.7297 11.9294C19.0461 11.6204 19.4605 11.4546 19.8673 11.4622C20.7262 11.4772 21.4495 12.2082 21.457 13.0674C21.457 13.4819 21.2837 13.8964 20.9749 14.2053C20.6735 14.5143 20.2591 14.6877 19.8447 14.6877ZM19.8372 12.4796C19.5132 12.4796 19.2571 12.7282 19.242 13.0598C19.2345 13.3688 19.4982 13.6627 19.8146 13.6853C19.9578 13.6929 20.116 13.6326 20.2365 13.512C20.3646 13.3914 20.4399 13.2256 20.4399 13.0824C20.4399 12.7659 20.1687 12.4946 19.8447 12.4871C19.8523 12.4796 19.8447 12.4796 19.8372 12.4796Z" fill="#00828C"></path><path d="M15.3616 14.6884H15.3541C14.9397 14.6884 14.5555 14.5301 14.2692 14.2437C13.9603 13.9347 13.787 13.5127 13.7945 13.0605C13.7945 12.6234 13.9678 12.2089 14.2692 11.9075C14.5705 11.6136 14.9699 11.4478 15.3993 11.4553C16.2506 11.4704 16.9739 12.2089 16.9814 13.0681C16.9739 13.9423 16.2356 14.6884 15.3616 14.6884ZM15.3767 12.4803C15.2335 12.4727 15.0904 12.533 14.9774 12.6385C14.8568 12.7516 14.789 12.9023 14.7815 13.0605C14.774 13.3846 15.0377 13.671 15.3466 13.6785C15.3541 13.6785 15.3541 13.6785 15.3616 13.6785C15.6705 13.6785 15.9493 13.4147 15.9643 13.1058C15.9719 12.94 15.9191 12.7892 15.8061 12.6687C15.6931 12.5556 15.5424 12.4878 15.3767 12.4803Z" fill="#00828C"></path></g><defs><clipPath id="clip0_2793_8793"><rect width="26" height="26" fill="white" transform="matrix(-1 0 0 1 26 0)"></rect></clipPath></defs></svg>