<svg xmlns="http://www.w3.org/2000/svg" width="30" height="29" viewBox="0 0 30 29" fill="none"><path d="M29.0512 11.9616C29.0512 11.108 28.398 10.3892 27.5272 10.3892C27.1788 10.3892 26.874 10.3892 26.5257 10.3892C26.395 10.3892 26.3079 10.3892 26.2644 10.3443C26.2209 10.2993 26.1773 10.2095 26.1773 10.0298C26.1773 9.53562 26.1773 9.04144 26.1773 8.54727V8.14294C26.1773 6.61549 25.0887 5.49236 23.6082 5.49236C22.5197 5.49236 21.4311 5.49236 20.2989 5.49236H18.9055H18.4266C18.0347 5.49236 17.6428 5.49236 17.2944 5.49236C17.1638 5.49236 17.1203 5.44743 17.1203 5.44743C17.1203 5.44743 17.1203 5.40251 17.1203 5.31266C17.1638 5.17788 17.2073 5.04311 17.2509 4.90833C17.2944 4.63878 17.3815 4.36923 17.4686 4.09968C17.5992 3.65043 17.7734 3.20118 17.7734 2.66208C17.8169 1.94327 17.4251 1.35925 16.8154 1.0897C16.2494 0.865071 15.7269 1.04477 15.2479 1.58387L14.2899 2.707C13.5932 3.51565 12.8965 4.32431 12.1998 5.17788C12.0257 5.40251 11.8515 5.44743 11.5902 5.44743C10.85 5.44743 10.0662 5.44743 9.32596 5.44743C8.71635 5.44743 8.15028 5.44743 7.54067 5.44743C7.23587 5.44743 6.80043 5.53728 6.75689 6.07639C6.75689 6.25609 6.80043 6.39086 6.88752 6.48071C7.01815 6.66041 7.27941 6.70534 7.54067 6.75026C7.84548 6.75026 8.19383 6.75026 8.49863 6.75026C8.84698 6.75026 9.19533 6.75026 9.54368 6.75026C9.67431 6.75026 9.80494 6.75026 9.93557 6.75026C10.1968 6.75026 10.5016 6.75026 10.7629 6.79519C10.6758 6.88504 10.6323 6.97489 10.5452 7.06474C10.2839 7.37921 10.0662 7.64877 9.84848 7.91832C9.58722 8.27772 9.28241 8.41249 8.84698 8.41249C8.84698 8.41249 8.84698 8.41249 8.80344 8.41249C7.01815 8.41249 5.23286 8.41249 3.49112 8.41249H2.05419C1.61875 8.41249 1.31395 8.50234 1.13977 8.68204C1.05268 8.81682 0.965597 8.95159 0.965597 9.08637C0.965597 9.6704 1.57521 9.76025 2.01064 9.76025H3.88301C5.23286 9.76025 6.58271 9.76025 7.93256 9.76025C7.97611 9.76025 8.01965 9.76025 8.06319 9.76025C8.15028 9.76025 8.19383 9.76025 8.28091 9.76025C8.23737 9.80517 8.19383 9.8501 8.15028 9.89502C7.97611 10.0747 7.84548 10.2544 7.71485 10.4341C7.45359 10.7935 7.19232 10.9283 6.75689 10.8834C6.40854 10.8384 6.10374 10.8834 5.75539 10.8834H5.6683C4.57971 10.8834 2.79443 10.8834 2.57671 10.9283C2.22836 10.9732 1.9671 11.2428 1.9671 11.6022C1.9671 11.9167 2.18482 12.1862 2.53316 12.2311C2.6638 12.2311 2.75088 12.2761 2.88151 12.2761C2.92506 12.2761 2.9686 12.2761 3.05569 12.2761C3.14277 12.2761 3.62175 12.2761 4.23136 12.2761C4.71034 12.2761 5.18932 12.2761 5.62476 12.2761C5.75539 12.2761 5.88602 12.2761 6.06019 12.2761H6.10374C5.88602 12.6355 5.71184 13.0847 5.79893 13.534C5.84247 13.6687 5.79893 13.7586 5.79893 13.8035C5.75539 13.8484 5.62476 13.8484 5.49413 13.8484C4.01365 13.8484 2.57671 13.8484 0.965597 13.8484C0.225357 13.8484 0.0947266 14.2078 0.0947266 14.5223C0.0947266 14.8368 0.225357 15.1962 0.965597 15.1962C1.05268 15.1962 1.13977 15.1962 1.22686 15.1962H2.44608C3.88301 15.1962 5.31995 15.1962 6.80043 15.1962C6.84398 15.1962 6.88752 15.1962 6.93106 15.1962C7.06169 15.1962 7.19232 15.1962 7.27941 15.2411C7.88902 15.6454 8.49863 16.0498 9.10824 16.4541L9.63076 16.8135H9.02115C8.368 16.8135 7.75839 16.8135 7.06169 16.8135C5.6683 16.8135 3.57821 16.8135 3.14277 16.8135C2.92506 16.8135 2.79443 16.9033 2.6638 17.0381C2.57671 17.1729 2.48962 17.3077 2.53316 17.5323C2.57671 17.9366 2.79443 18.1612 3.18632 18.1612C3.40404 18.1612 3.57821 18.1612 3.79593 18.1612C3.88301 18.1612 3.9701 18.1612 4.05719 18.1612H4.14428H4.49262C5.14578 18.1612 6.27791 18.1612 7.14878 18.1612C7.23587 18.1612 7.32295 18.1612 7.41004 18.1612H8.28091C8.97761 18.1612 9.67431 18.1612 10.371 18.1612C10.4145 18.1612 10.4145 18.1612 10.4581 18.1612C10.6323 18.1612 10.6323 18.1612 10.6323 18.2062C10.6323 18.5206 10.5887 18.8351 10.4145 19.2394C10.371 19.3293 10.2839 19.3293 10.1097 19.3293C10.0662 19.3293 10.0227 19.3293 9.97911 19.3293C8.15028 19.3293 6.32145 19.3293 4.49262 19.3293H1.53166C1.40103 19.3293 1.22686 19.3293 1.05268 19.3742C0.74788 19.4191 0.573706 19.6438 0.530162 19.9583C0.486618 20.2727 0.660793 20.4974 0.965597 20.6321C1.18332 20.722 1.35749 20.722 1.57521 20.722H1.66229H9.02115C9.28241 20.722 9.58722 20.722 9.84848 20.722C9.97911 20.722 10.0227 20.7669 10.0227 20.7669C10.0227 20.7669 10.0662 20.8118 10.0227 20.9466C9.93557 21.306 9.84848 21.6654 9.80494 21.9799C9.76139 22.2494 9.63076 22.3393 9.3695 22.3393C8.6728 22.3393 7.93256 22.3393 7.23587 22.3393H6.62626C6.45208 22.3393 5.84247 22.3393 5.84247 23.0132C5.84247 23.1929 5.88602 23.3726 6.01665 23.4624C6.19082 23.6421 6.45208 23.6421 6.62626 23.6421C6.97461 23.6421 7.32295 23.6421 7.6713 23.6421C8.15028 23.6421 8.6728 23.6421 9.15178 23.6421C9.32596 23.6421 9.3695 23.687 9.41304 23.687C9.41304 23.732 9.45659 23.7769 9.41304 23.9566C9.28241 24.4957 9.15178 25.0348 9.02115 25.5739L8.89052 26.0681C8.71635 26.8767 9.02115 27.5955 9.67431 27.9549C9.89202 28.0448 10.0662 28.0897 10.2839 28.0897C10.6758 28.0897 11.1112 27.8651 11.4596 27.4607L11.6338 27.2361C12.5046 26.2028 13.3755 25.1246 14.2028 24.0914C14.4206 23.7769 14.6818 23.687 15.0737 23.687C17.8169 23.687 20.6473 23.687 23.7389 23.687C25.1323 23.687 26.2209 22.5639 26.2209 21.1263C26.2209 20.4524 26.2209 19.7785 26.2209 19.1047C26.2209 18.9699 26.2209 18.88 26.2644 18.8351C26.3079 18.7902 26.395 18.7902 26.4821 18.7902C26.7869 18.7902 27.0917 18.7902 27.5272 18.7902C28.398 18.7453 29.0512 18.0714 29.0512 17.2178C29.0947 15.331 29.0947 13.6238 29.0512 11.9616ZM27.832 16.6787C27.832 17.2178 27.7449 17.3077 27.1788 17.3077C26.6998 17.3077 26.395 17.3077 26.3079 17.2178C26.2209 17.128 26.2209 16.8584 26.2209 16.3642V13.8035C26.2209 13.2195 26.2209 12.6355 26.2209 12.0065C26.2209 11.8717 26.2209 11.7819 26.2644 11.737C26.3079 11.692 26.395 11.692 26.5257 11.692H26.6563C26.6998 11.692 26.7869 11.692 26.8305 11.692C27.353 11.692 27.6142 11.692 27.7449 11.8268C27.8755 11.9616 27.8755 12.2311 27.832 12.7702V12.9949C27.832 13.7586 27.832 14.4774 27.832 15.2411C27.832 15.6904 27.832 16.1845 27.832 16.6787ZM24.9581 15.915C24.9581 17.4874 24.9581 19.1047 24.9581 20.6771C24.9581 21.7103 24.4791 22.2494 23.4776 22.2494C20.9521 22.2494 18.4266 22.2494 15.901 22.2494C15.8575 22.2494 15.8139 22.2494 15.7704 22.2494C15.6398 22.2494 15.6398 22.2494 15.5962 22.2494C15.5962 22.2045 15.5962 22.2045 15.6833 22.1147C15.7269 22.0697 15.7269 22.0697 15.7704 22.0248C16.3365 21.306 16.9025 20.6321 17.4686 19.9133C18.2959 18.88 19.1233 17.8468 19.9506 16.8584C20.3425 16.3642 20.5166 15.8701 20.4296 15.4208C20.3425 14.9266 20.0377 14.4774 19.5587 14.1629L18.9491 13.7137C17.9476 13.0398 16.9461 12.321 15.901 11.6471C15.5962 11.4225 15.5091 11.1979 15.5962 10.8834C15.7704 10.2095 15.9881 9.53562 16.1623 8.86174C16.3365 8.27772 16.5106 7.64877 16.6848 7.06474C16.7284 6.88504 16.8154 6.79519 17.0332 6.79519C17.9476 6.79519 18.862 6.79519 19.7764 6.79519C21.0827 6.79519 22.389 6.79519 23.6518 6.79519C24.392 6.79519 24.9145 7.37922 24.9145 8.18787C24.9145 9.71532 24.9145 11.1979 24.9145 12.7253V14.5223L24.9581 15.915ZM10.1533 26.113C10.5016 24.5406 10.85 22.9682 11.2419 21.3959L11.2854 21.2162C11.3725 20.8118 11.4596 20.4075 11.5467 20.0032C11.6773 19.4191 11.8079 18.8351 11.9386 18.2511C12.1563 17.3975 11.895 16.7236 11.1548 16.2295C10.5016 15.7802 9.80494 15.331 9.15178 14.8817C8.58572 14.4774 8.01965 14.118 7.45359 13.7137C7.23587 13.534 7.10524 13.4441 7.10524 13.3093C7.10524 13.1746 7.14878 13.0398 7.32296 12.8601C10.2839 9.44577 13.2449 5.98654 16.2058 2.57223C16.2058 2.57223 16.2494 2.5273 16.2494 2.48238C16.3365 2.39253 16.38 2.3476 16.4236 2.3476H16.4671C16.5542 2.39253 16.5977 2.43745 16.5977 2.66208L16.5106 3.02148C16.4236 3.33595 16.3365 3.69535 16.2058 4.05476C15.9881 4.77356 15.8139 5.44743 15.5962 6.16624C15.2043 7.55892 14.8124 8.95159 14.4206 10.3443C14.1157 11.4674 14.2899 12.0514 15.2479 12.7253C15.8139 13.1296 16.38 13.489 16.9461 13.8934C17.5557 14.2977 18.2088 14.7469 18.8185 15.1513C19.0797 15.331 19.2103 15.4657 19.2103 15.5556C19.2103 15.6904 19.1668 15.8251 18.9491 16.0498L17.9911 17.2178C15.5091 20.2727 13.0272 23.3276 10.5452 26.3376C10.5016 26.3825 10.5016 26.4275 10.4581 26.4275C10.3275 26.6072 10.2839 26.6072 10.1968 26.5622C10.0662 26.5173 10.1097 26.3825 10.1533 26.113Z" fill="#00828C"></path><path d="M3.97036 6.75009C4.23162 6.75009 4.49289 6.79502 4.75415 6.79502C5.01541 6.79502 5.32021 6.79502 5.58147 6.75009C5.92982 6.70517 6.14754 6.43562 6.104 6.07621C6.06045 5.71681 5.84274 5.49219 5.49439 5.49219C5.32021 5.49219 5.14604 5.49219 4.97186 5.49219C4.88478 5.49219 4.84123 5.49219 4.75415 5.49219H4.66706C4.62352 5.49219 4.57997 5.49219 4.53643 5.49219C4.36225 5.49219 4.18808 5.49219 4.01391 5.49219C3.66556 5.53711 3.44784 5.76174 3.4043 6.07621C3.4043 6.43562 3.62201 6.70517 3.97036 6.75009Z" fill="#00828C"></path><path d="M4.62373 22.2495C4.05767 22.2046 3.53514 22.2046 3.01262 22.2495C2.83845 22.2495 2.70782 22.3394 2.62073 22.4292C2.53364 22.564 2.44655 22.7437 2.4901 22.9234C2.53364 23.2828 2.70782 23.5074 3.05616 23.5074C3.23034 23.5074 3.40451 23.5074 3.57869 23.5074C3.62223 23.5074 3.66577 23.5074 3.70932 23.5074H3.83995C3.92703 23.5074 4.01412 23.5074 4.05767 23.5074C4.10121 23.5074 4.23184 23.5074 4.27538 23.5074C4.36247 23.5074 4.4931 23.5074 4.58019 23.5074C4.92854 23.4625 5.14625 23.2379 5.14625 22.8785C5.14625 22.5191 4.97208 22.2944 4.62373 22.2495Z" fill="#00828C"></path></svg>