<svg xmlns="http://www.w3.org/2000/svg" width="26" height="26" viewBox="0 0 26 26" fill="none"><path d="M25.2861 24.1526C24.8485 24.1526 24.4507 24.1526 23.9734 24.1526H23.9336C23.7347 24.1526 23.496 24.1526 23.2971 24.1526H23.0982V0.908562C23.0982 0.151427 22.9391 0 22.1434 0H4.75936C3.88419 0 3.76485 0.11357 3.76485 0.946418V24.0769L3.52616 24.1147C3.48638 24.1147 3.4466 24.1147 3.40682 24.1147H1.8156C1.49736 24.1526 0.94043 24.2283 0.94043 24.7204C0.94043 24.8719 0.98021 24.9854 1.05977 25.0612C1.21889 25.2126 1.45758 25.2883 1.85538 25.2883H25.0872C25.127 25.2883 25.1668 25.2883 25.2065 25.2883C25.2463 25.2883 25.3259 25.2883 25.3657 25.2883L25.4452 25.2504C25.6044 25.1747 25.8033 25.099 25.8828 24.9854C26.0022 24.834 26.0419 24.6447 25.9226 24.4554C25.8033 24.304 25.5646 24.1526 25.2861 24.1526ZM16.2957 24.1526H10.5673V18.7012H16.2957V24.1526ZM21.865 24.1147H17.5289V18.3227C17.5289 17.7169 17.3698 17.5277 16.7333 17.5277C14.5454 17.5277 12.3574 17.5277 10.1695 17.5277C9.5728 17.5277 9.3739 17.7169 9.3739 18.2848C9.3739 19.5341 9.3739 20.7833 9.3739 22.0326V24.0769H4.99804V1.17356H21.865V24.1147Z" fill="#00828C"></path><path d="M11.7213 3.33105C11.1246 3.33105 10.4881 3.33105 9.81184 3.33105C9.17535 3.33105 8.53886 3.33105 7.94215 3.33105C7.54435 3.33105 7.30566 3.55819 7.30566 3.93676C7.30566 5.18603 7.30566 6.43531 7.30566 7.57101C7.30566 7.94957 7.54435 8.13886 7.94215 8.13886C9.17535 8.13886 10.4483 8.13886 11.6815 8.13886C12.1191 8.13886 12.318 7.94957 12.318 7.49529C12.318 7.11673 12.318 6.7003 12.318 6.32174V5.22389C12.318 4.80747 12.318 4.39104 12.318 3.97462C12.318 3.52034 12.1191 3.33105 11.7213 3.33105ZM11.1246 6.9653H8.49908V4.46676H11.1644V6.9653H11.1246Z" fill="#00828C"></path><path d="M14.5449 3.97462C14.5449 5.11032 14.5449 6.28388 14.5449 7.49529C14.5449 7.94957 14.7438 8.13886 15.2212 8.13886C15.6588 8.13886 16.0566 8.13886 16.4942 8.13886H17.0511H17.608C18.0456 8.13886 18.4832 8.13886 18.9208 8.13886C19.3981 8.13886 19.597 7.94957 19.597 7.53315C19.597 6.39745 19.597 5.22389 19.597 3.97462C19.597 3.55819 19.3584 3.33105 18.9606 3.33105C18.3241 3.33105 17.6876 3.33105 17.0909 3.33105C16.4544 3.33105 15.8179 3.33105 15.1814 3.33105C14.7836 3.33105 14.5449 3.55819 14.5449 3.97462ZM15.7383 4.46676H18.4036V6.9653H15.7383V4.46676Z" fill="#00828C"></path><path d="M12.3178 14.4994C12.3178 14.083 12.3178 13.6666 12.3178 13.288V12.758V12.1523C12.3178 11.7737 12.3178 11.3952 12.3178 11.0166C12.3178 10.5623 12.1188 10.373 11.6415 10.373C10.4083 10.373 9.17509 10.373 7.94189 10.373C7.46453 10.373 7.26562 10.5623 7.26562 10.9788C7.26562 12.1902 7.26562 13.3637 7.26562 14.5373C7.26562 14.9537 7.46453 15.143 7.86233 15.143C9.13531 15.143 10.4083 15.143 11.6813 15.143C12.1188 15.1051 12.3178 14.9159 12.3178 14.4994ZM11.1243 13.9694H8.49882V11.4709H11.1641V13.9694H11.1243Z" fill="#00828C"></path><path d="M14.5449 14.4616C14.5449 14.9537 14.7438 15.143 15.2212 15.143C16.4544 15.143 17.6876 15.143 18.881 15.143C19.3584 15.143 19.5573 14.9537 19.597 14.4994C19.597 13.4016 19.597 12.228 19.597 11.0166C19.597 10.5623 19.3981 10.373 18.9208 10.373C17.6876 10.373 16.4544 10.373 15.2212 10.373C14.7836 10.373 14.5449 10.5623 14.5449 10.9788C14.5449 11.3952 14.5449 11.8116 14.5449 12.1902V12.7202V13.2123C14.5449 13.6287 14.5449 14.0451 14.5449 14.4616ZM15.7781 11.4709H18.4036V13.9694H15.7781V11.4709Z" fill="#00828C"></path></svg>