<svg xmlns="http://www.w3.org/2000/svg" width="30" height="30" viewBox="0 0 30 30" fill="none"><ellipse cx="15" cy="15" rx="15" ry="15" transform="rotate(90 15 15)" fill="#00828C"></ellipse><path d="M20.662 20.98C20.3353 21.3627 19.9527 21.652 19.514 21.848C19.0847 22.044 18.6133 22.142 18.1 22.142C17.428 22.142 16.812 21.988 16.252 21.68C15.692 21.3813 15.0527 20.8587 14.334 20.112C13.4287 20.0373 12.6167 19.776 11.898 19.328C11.1793 18.8707 10.6193 18.278 10.218 17.55C9.81667 16.8127 9.616 15.996 9.616 15.1C9.616 14.148 9.84467 13.2893 10.302 12.524C10.7593 11.7493 11.3893 11.1473 12.192 10.718C12.9947 10.2793 13.8953 10.06 14.894 10.06C15.8927 10.06 16.7933 10.2793 17.596 10.718C18.3987 11.1473 19.0287 11.7447 19.486 12.51C19.9433 13.2753 20.172 14.1387 20.172 15.1C20.172 15.8747 20.018 16.5933 19.71 17.256C19.402 17.9093 18.9727 18.4693 18.422 18.936C17.8713 19.3933 17.232 19.7247 16.504 19.93C16.7747 20.2193 17.0407 20.4293 17.302 20.56C17.5633 20.6907 17.8433 20.756 18.142 20.756C18.786 20.756 19.346 20.4947 19.822 19.972L20.662 20.98ZM11.45 15.1C11.45 15.7533 11.5993 16.346 11.898 16.878C12.1967 17.4007 12.6073 17.8113 13.13 18.11C13.6527 18.3993 14.2407 18.544 14.894 18.544C15.5473 18.544 16.1353 18.3993 16.658 18.11C17.1807 17.8113 17.5913 17.4007 17.89 16.878C18.1887 16.346 18.338 15.7533 18.338 15.1C18.338 14.4467 18.1887 13.8587 17.89 13.336C17.5913 12.804 17.1807 12.3933 16.658 12.104C16.1353 11.8053 15.5473 11.656 14.894 11.656C14.2407 11.656 13.6527 11.8053 13.13 12.104C12.6073 12.3933 12.1967 12.804 11.898 13.336C11.5993 13.8587 11.45 14.4467 11.45 15.1Z" fill="white"></path></svg>