<svg xmlns="http://www.w3.org/2000/svg" width="601" height="160" viewBox="0 0 601 160" fill="none"><path fill-rule="evenodd" clip-rule="evenodd" d="M420.904 159.28H394.604H309.404H253.304H131.304H111.904H65.6039H0.00390625C0.00390625 118.447 29.4039 85.4235 65.6039 85.4235C86.8039 85.4235 105.604 96.6916 117.604 114.207C134.904 48.2722 189.104 0.1875 253.204 0.1875C295.604 0.1875 333.604 21.1618 359.504 54.4083C377.104 41.3551 398.204 33.6571 420.904 33.6571C449.704 33.6571 475.904 45.9293 495.704 66.1227C502.104 64.4492 508.704 63.4451 515.604 63.4451C562.604 63.4451 600.704 106.286 600.704 159.28H532.504H430.504H420.904Z" fill="white"></path><path d="M534.678 96.6533C537.82 92.9302 537.663 87.0696 534.326 83.5634C530.989 80.0571 525.736 80.233 522.593 83.956C519.45 87.6791 519.608 93.5396 522.945 97.0459C526.282 100.552 531.535 100.376 534.678 96.6533Z" fill="#CCCCCC"></path><path fill-rule="evenodd" clip-rule="evenodd" d="M524.604 64.0026C524.704 66.4571 523.904 69.0231 522.204 71.0312C518.904 74.936 513.304 75.1592 509.804 71.4775C507.904 69.4693 507.004 66.6802 507.004 64.0026C509.804 63.6679 512.604 63.5564 515.504 63.5564C518.604 63.4448 521.604 63.6679 524.604 64.0026Z" fill="#CCCCCC"></path><path fill-rule="evenodd" clip-rule="evenodd" d="M566.804 82.8575C566.604 83.0807 566.504 83.3038 566.304 83.5269C563.004 87.4317 557.404 87.6548 553.904 83.9732C551.104 80.9609 550.404 76.4983 551.904 72.7051C557.204 75.4942 562.204 78.8412 566.804 82.8575Z" fill="#CCCCCC"></path><path d="M541.216 133.784C543.336 131.272 543.23 127.318 540.978 124.952C538.727 122.587 535.182 122.705 533.062 125.217C530.942 127.729 531.048 131.683 533.299 134.049C535.551 136.415 539.095 136.296 541.216 133.784Z" fill="#CCCCCC"></path><path d="M504.326 145.39C506.825 142.43 506.7 137.77 504.046 134.982C501.393 132.193 497.215 132.333 494.716 135.294C492.217 138.254 492.343 142.914 494.996 145.703C497.65 148.491 501.827 148.351 504.326 145.39Z" fill="#CCCCCC"></path><path d="M517.54 119.709C519.85 116.974 519.735 112.666 517.282 110.089C514.83 107.512 510.969 107.641 508.659 110.376C506.349 113.112 506.465 117.419 508.917 119.997C511.369 122.574 515.23 122.445 517.54 119.709Z" fill="#CCCCCC"></path><path d="M497.036 110.61C499.346 107.873 499.23 103.566 496.778 100.989C494.325 98.4126 490.465 98.5418 488.155 101.278C485.845 104.014 485.961 108.321 488.413 110.898C490.866 113.475 494.727 113.346 497.036 110.61Z" fill="#CCCCCC"></path><path d="M488.362 86.5491C490.823 83.6334 490.7 79.0439 488.086 76.298C485.473 73.5522 481.359 73.6898 478.898 76.6055C476.437 79.5212 476.56 84.1107 479.173 86.8566C481.787 89.6024 485.901 89.4648 488.362 86.5491Z" fill="#CCCCCC"></path><path d="M560.677 120.041C562.495 117.888 562.404 114.499 560.474 112.471C558.544 110.443 555.507 110.545 553.689 112.698C551.872 114.851 551.963 118.239 553.892 120.267C555.822 122.295 558.86 122.193 560.677 120.041Z" fill="#CCCCCC"></path><path d="M474.876 137.443C476.694 135.29 476.603 131.901 474.673 129.874C472.744 127.846 469.706 127.947 467.889 130.1C466.071 132.253 466.162 135.642 468.092 137.67C470.021 139.697 473.059 139.596 474.876 137.443Z" fill="#CCCCCC"></path><path d="M465.795 122.489C467.613 120.336 467.522 116.947 465.592 114.919C463.662 112.892 460.624 112.993 458.806 115.146C456.989 117.299 457.08 120.689 459.01 122.716C460.94 124.744 463.978 124.642 465.795 122.489Z" fill="#CCCCCC"></path><path d="M578.428 129.11C580.246 126.957 580.155 123.568 578.225 121.54C576.295 119.513 573.257 119.614 571.439 121.767C569.622 123.921 569.713 127.31 571.643 129.338C573.573 131.365 576.611 131.264 578.428 129.11Z" fill="#CCCCCC"></path><path d="M575.849 104.355C578.348 101.395 578.223 96.7346 575.57 93.9465C572.916 91.1584 568.739 91.2981 566.24 94.2587C563.741 97.2192 563.866 101.879 566.52 104.667C569.173 107.456 573.35 107.316 575.849 104.355Z" fill="#CCCCCC"></path><path fill-rule="evenodd" clip-rule="evenodd" d="M532.403 65.8994C532.503 65.7878 532.703 65.5647 532.803 65.4531C536.203 66.2341 539.503 67.2382 542.703 68.4654C543.403 70.8083 542.903 73.3743 541.303 75.2709C539.003 78.06 535.103 78.1716 532.603 75.6056C530.203 73.0396 530.103 68.6885 532.403 65.8994Z" fill="#CCCCCC"></path><path fill-rule="evenodd" clip-rule="evenodd" d="M493.805 66.7919C494.205 66.3456 494.705 66.011 495.205 65.6763C495.405 65.7878 495.505 66.011 495.705 66.1225C496.605 65.8994 497.505 65.6763 498.405 65.4531C499.005 65.6763 499.605 66.011 500.105 66.5688C501.905 68.4654 502.005 71.5892 500.305 73.4858C498.605 75.494 495.805 75.6056 494.105 73.709C492.305 71.8124 492.205 68.6885 493.805 66.7919Z" fill="#CCCCCC"></path><path d="M453.612 74.0998C454.937 72.5301 454.871 70.059 453.464 68.5804C452.057 67.1019 449.842 67.1758 448.517 68.7456C447.192 70.3154 447.258 72.7865 448.665 74.265C450.072 75.7435 452.287 75.6696 453.612 74.0998Z" fill="#CCCCCC"></path><path d="M423.957 77.867C425.282 76.2971 425.215 73.8257 423.808 72.3472C422.401 70.8687 420.186 70.9428 418.861 72.5128C417.535 74.0828 417.602 76.5541 419.009 78.0326C420.416 79.5111 422.631 79.437 423.957 77.867Z" fill="#CCCCCC"></path><path d="M427.647 143.526C428.973 141.956 428.906 139.485 427.499 138.006C426.092 136.528 423.877 136.602 422.552 138.171C421.227 139.741 421.293 142.212 422.7 143.691C424.107 145.169 426.322 145.095 427.647 143.526Z" fill="#CCCCCC"></path><path d="M439.355 103.139C440.68 101.569 440.614 99.0972 439.207 97.6187C437.799 96.1402 435.584 96.2143 434.259 97.7843C432.934 99.3542 433 101.826 434.407 103.304C435.815 104.783 438.03 104.708 439.355 103.139Z" fill="#CCCCCC"></path><path d="M511.637 96.1678C514.78 92.4453 514.623 86.5851 511.286 83.0789C507.949 79.5727 502.697 79.7481 499.554 83.4706C496.411 87.1932 496.568 93.0533 499.905 96.5595C503.242 100.066 508.494 99.8904 511.637 96.1678Z" fill="#CCCCCC"></path><path d="M525.466 150.069C527.776 147.332 527.66 143.025 525.207 140.448C522.755 137.872 518.894 138.001 516.584 140.737C514.275 143.473 514.391 147.78 516.843 150.357C519.296 152.934 523.156 152.805 525.466 150.069Z" fill="#CCCCCC"></path><path d="M476.279 102.692C478.588 99.9555 478.473 95.6484 476.02 93.0715C473.567 90.4946 469.707 90.6238 467.397 93.3601C465.087 96.0963 465.203 100.403 467.656 102.98C470.108 105.557 473.969 105.428 476.279 102.692Z" fill="#CCCCCC"></path><path d="M452.505 59.6822C453.111 58.9643 453.08 57.8346 452.437 57.1589C451.793 56.4832 450.78 56.5174 450.175 57.2353C449.569 57.9532 449.6 59.0829 450.243 59.7586C450.887 60.4343 451.899 60.4001 452.505 59.6822Z" fill="#CCCCCC"></path><path d="M460.302 48.7355C460.907 48.0177 460.877 46.8879 460.234 46.2121C459.59 45.5363 458.578 45.5704 457.972 46.2882C457.366 47.006 457.397 48.1357 458.04 48.8115C458.683 49.4873 459.696 49.4533 460.302 48.7355Z" fill="#CCCCCC"></path><path d="M428.399 48.1384C429.005 47.4207 428.975 46.291 428.331 45.6151C427.688 44.9391 426.675 44.973 426.07 45.6907C425.464 46.4084 425.494 47.5382 426.137 48.2141C426.781 48.89 427.793 48.8561 428.399 48.1384Z" fill="#CCCCCC"></path><path d="M402.376 96.9665C402.982 96.2488 402.951 95.1191 402.308 94.4432C401.665 93.7673 400.652 93.8011 400.046 94.5188C399.44 95.2365 399.471 96.3663 400.114 97.0422C400.757 97.7181 401.77 97.6842 402.376 96.9665Z" fill="#CCCCCC"></path><path d="M444.837 121.775C445.443 121.057 445.412 119.928 444.769 119.252C444.126 118.576 443.113 118.61 442.507 119.327C441.901 120.045 441.932 121.175 442.575 121.851C443.218 122.527 444.231 122.493 444.837 121.775Z" fill="#CCCCCC"></path><path d="M446.11 140.189C446.716 139.471 446.686 138.342 446.042 137.666C445.399 136.99 444.386 137.024 443.781 137.741C443.175 138.459 443.205 139.589 443.848 140.265C444.492 140.941 445.504 140.907 446.11 140.189Z" fill="#CCCCCC"></path><path d="M564.512 149.109C565.118 148.391 565.088 147.262 564.445 146.586C563.801 145.91 562.789 145.944 562.183 146.661C561.577 147.379 561.607 148.509 562.251 149.185C562.894 149.861 563.907 149.827 564.512 149.109Z" fill="#CCCCCC"></path><path d="M594.457 141.201C595.063 140.483 595.033 139.353 594.39 138.677C593.747 138.001 592.735 138.034 592.129 138.752C591.523 139.469 591.553 140.599 592.196 141.275C592.839 141.951 593.851 141.918 594.457 141.201Z" fill="#CCCCCC"></path><path d="M466.173 57.5485C466.778 56.8308 466.748 55.7011 466.105 55.0252C465.462 54.3493 464.449 54.3832 463.843 55.1009C463.237 55.8186 463.268 56.9483 463.911 57.6242C464.554 58.3001 465.567 58.2662 466.173 57.5485Z" fill="#CCCCCC"></path><path d="M453.751 97.1077C454.357 96.3901 454.326 95.2603 453.683 94.5843C453.04 93.9083 452.027 93.942 451.421 94.6596C450.815 95.3772 450.846 96.507 451.489 97.183C452.132 97.859 453.145 97.8253 453.751 97.1077Z" fill="#CCCCCC"></path><path d="M489.193 127.263C490.859 125.289 490.775 122.182 489.006 120.324C487.237 118.465 484.452 118.558 482.786 120.532C481.12 122.505 481.204 125.612 482.973 127.471C484.742 129.33 487.527 129.237 489.193 127.263Z" fill="#CCCCCC"></path><path fill-rule="evenodd" clip-rule="evenodd" d="M473.102 155.709C474.802 153.701 477.602 153.59 479.302 155.486C480.302 156.49 480.702 157.941 480.702 159.28H471.902C471.902 158.052 472.302 156.713 473.102 155.709Z" fill="#CCCCCC"></path><path d="M552.512 104.276C555.541 100.687 555.389 95.0387 552.173 91.6592C548.956 88.2796 543.893 88.4491 540.864 92.0376C537.835 95.6261 537.986 101.275 541.203 104.654C544.419 108.034 549.483 107.864 552.512 104.276Z" fill="#CCCCCC"></path><path fill-rule="evenodd" clip-rule="evenodd" d="M440.303 37.3385C441.003 36.5576 441.903 36.1113 442.803 36.1113C443.303 36.2229 443.903 36.3345 444.403 36.446C444.703 36.6692 445.003 36.8923 445.303 37.1154C446.703 38.5658 446.803 41.1318 445.403 42.6937C444.103 44.2556 441.903 44.3672 440.403 42.8053C439.003 41.3549 439.003 38.9005 440.303 37.3385Z" fill="#CCCCCC"></path><path d="M411.8 52.1912C413.126 50.6213 413.059 48.15 411.652 46.6714C410.245 45.1929 408.03 45.267 406.704 46.837C405.379 48.407 405.445 50.8783 406.853 52.3568C408.26 53.8353 410.475 53.7612 411.8 52.1912Z" fill="#CCCCCC"></path><path d="M414.746 121.463C416.071 119.893 416.004 117.421 414.597 115.943C413.19 114.464 410.975 114.539 409.65 116.108C408.324 117.678 408.391 120.15 409.798 121.628C411.205 123.107 413.42 123.033 414.746 121.463Z" fill="#CCCCCC"></path><path d="M406.45 79.3871C408.76 76.6508 408.644 72.3437 406.192 69.7668C403.739 67.1899 399.879 67.3191 397.569 70.0554C395.259 72.7916 395.375 77.0987 397.828 79.6756C400.28 82.2525 404.141 82.1233 406.45 79.3871Z" fill="#CCCCCC"></path><path fill-rule="evenodd" clip-rule="evenodd" d="M450.105 152.81C452.405 150.021 456.305 149.909 458.805 152.475C460.505 154.26 461.105 156.938 460.505 159.281H448.705C448.105 157.049 448.605 154.595 450.105 152.81Z" fill="#CCCCCC"></path><path d="M551.65 155.045C553.959 152.309 553.844 148.002 551.391 145.425C548.938 142.848 545.078 142.977 542.768 145.714C540.458 148.45 540.574 152.757 543.027 155.334C545.479 157.911 549.34 157.781 551.65 155.045Z" fill="#CCCCCC"></path><path d="M392.246 55.4315C393.571 53.8615 393.504 51.3902 392.097 49.9117C390.69 48.4331 388.475 48.5073 387.15 50.0772C385.824 51.6472 385.891 54.1185 387.298 55.597C388.705 57.0756 390.92 57.0015 392.246 55.4315Z" fill="#CCCCCC"></path><path d="M402.155 148.266C403.48 146.696 403.414 144.225 402.007 142.746C400.6 141.268 398.385 141.342 397.06 142.912C395.734 144.481 395.801 146.952 397.208 148.431C398.615 149.91 400.83 149.836 402.155 148.266Z" fill="#CCCCCC"></path><path d="M422.985 100.027C423.591 99.3087 423.561 98.179 422.917 97.5032C422.274 96.8274 421.261 96.8614 420.655 97.5792C420.05 98.297 420.08 99.4268 420.724 100.103C421.367 100.778 422.38 100.744 422.985 100.027Z" fill="#CCCCCC"></path><path d="M382.098 115.549C382.704 114.831 382.674 113.701 382.031 113.025C381.387 112.349 380.375 112.383 379.769 113.101C379.163 113.819 379.193 114.948 379.837 115.624C380.48 116.3 381.493 116.266 382.098 115.549Z" fill="#CCCCCC"></path><path d="M395.552 125.49C396.157 124.772 396.127 123.642 395.484 122.967C394.84 122.291 393.828 122.325 393.222 123.042C392.616 123.76 392.646 124.89 393.29 125.566C393.933 126.242 394.946 126.208 395.552 125.49Z" fill="#CCCCCC"></path><path d="M385.208 89.5594C385.813 88.8416 385.783 87.7119 385.139 87.0362C384.496 86.3605 383.484 86.3946 382.878 87.1124C382.272 87.8302 382.303 88.9599 382.946 89.6356C383.59 90.3113 384.602 90.2772 385.208 89.5594Z" fill="#CCCCCC"></path><path d="M442.97 85.7301C444.788 83.5773 444.697 80.1884 442.767 78.1606C440.837 76.1329 437.8 76.2343 435.982 78.3872C434.165 80.54 434.256 83.9289 436.185 85.9566C438.115 87.9843 441.153 87.8829 442.97 85.7301Z" fill="#CCCCCC"></path><path fill-rule="evenodd" clip-rule="evenodd" d="M431.404 34.2158C431.304 34.3274 431.204 34.4389 431.104 34.6621C429.304 36.7818 426.204 36.8934 424.304 34.8852C424.004 34.5505 423.704 34.1042 423.504 33.7695C426.104 33.7695 428.804 33.9927 431.404 34.2158Z" fill="#CCCCCC"></path><path d="M467.872 84.3851C470.182 81.6489 470.066 77.3417 467.614 74.7649C465.161 72.188 461.301 72.3172 458.991 75.0534C456.681 77.7896 456.797 82.0968 459.249 84.6737C461.702 87.2505 465.563 87.1213 467.872 84.3851Z" fill="#CCCCCC"></path></svg>